<?xml version="1.0" encoding="UTF-8" standalone="no"?>
<svg
   xmlns:dc="http://purl.org/dc/elements/1.1/"
   xmlns:cc="http://creativecommons.org/ns#"
   xmlns:rdf="http://www.w3.org/1999/02/22-rdf-syntax-ns#"
   xmlns:svg="http://www.w3.org/2000/svg"
   xmlns="http://www.w3.org/2000/svg"
   viewBox="0 0 5066.0933 4260.9468"
   height="4260.9468"
   width="5066.0933"
   xml:space="preserve"
   id="svg2"
   version="1.1"><metadata
     id="metadata8"><rdf:RDF><cc:Work
         rdf:about=""><dc:format>image/svg+xml</dc:format><dc:type
           rdf:resource="http://purl.org/dc/dcmitype/StillImage" /></cc:Work></rdf:RDF></metadata><defs
     id="defs6" /><g
     transform="matrix(1.3333333,0,0,-1.3333333,0,4260.9467)"
     id="g10"><g
       transform="scale(0.1)"
       id="g12"><g
         transform="scale(1.05788)"
         id="g14"><path
           id="path16"
           style="fill:#c5af97;fill-opacity:1;fill-rule:nonzero;stroke:none"
           d="m 11622.1,10299.6 c 0,0 79.3,-2473.12 85.1,-3161.76 5.7,-688.64 219.3,-2340.71 25.9,-2989.74 -102.5,-344.37 -336,-756.23 -682.5,-901.24 340.3,-535.59 2214,-1284.17 3009.1,-1312.53 795.1,-28.35 1131.2,625.69 1172.1,751.69 41,126.01 276.4,1143.99 412.8,1594.42 208,686.84 470,1201.83 655.4,2262.34 -1002,1814.95 -4677.9,3756.82 -4677.9,3756.82" /></g><g
         transform="scale(1.05788)"
         id="g18"><path
           id="path20"
           style="fill:#ad9884;fill-opacity:1;fill-rule:nonzero;stroke:none"
           d="m 12549.9,9766.86 c 261.7,-376.7 537.7,-743.46 904.8,-1031.02 255.2,-207.96 406.5,-472.64 595.5,-737.32 623.9,-850.76 813,-1911.37 661.7,-2987.1 -65.4,-465.55 -291.4,-1592.9 -650.6,-2601.89 0,0 -101.9,-471.7 -1.6,-475.2 795.1,-28.35 1131.2,625.69 1172.1,751.69 41,126.01 276.4,1143.99 412.8,1594.42 208,686.84 470,1201.83 655.4,2262.34 -680,1231.8 -2591.9,2522.11 -3750.1,3224.08" /></g><path
         id="path22"
         style="fill:#dccfc1;fill-opacity:1;fill-rule:nonzero;stroke:none"
         d="m 12743.5,4241.5 c 219.8,482 62.5,1820.9 -4.5,3170 -79.1,1589.9 -93.3,3186 -99.3,3293.9 -216.5,122.5 -344.9,190.4 -344.9,190.4 0,0 83.9,-2616.3 90,-3344.8 6.1,-728.5 232,-2476.2 27.5,-3162.8 -108.5,-364.3 -355.5,-800 -722.1,-953.4 40.9,-64.4 103,-131.7 181.8,-200.5 120.5,82.9 498.2,188.8 871.5,1007.2" /><g
         transform="scale(1.05948)"
         id="g24"><path
           id="path26"
           style="fill:#6b5f55;fill-opacity:1;fill-rule:nonzero;stroke:none"
           d="m 11069.2,3231.76 c 167.4,-235.11 651.2,-536.96 1305.9,-813.32 635.2,-268.15 1288.5,-450.12 1664.2,-463.53 745.4,-26.33 1094.5,572.45 1147,734.32 15.5,47.67 60.1,227.95 116.4,456.17 89.3,362.15 211.7,858.15 295.6,1135.36 62.3,205.57 128,391.89 197.6,589.25 160.1,453.8 325.6,923.09 454.8,1658.73 -517,929.79 -1752.5,1894.03 -2699.2,2539.82 -914.9,624.08 -1742.5,1078.44 -1922.2,1175.34 10.4,-324.83 78.5,-2485.22 83.8,-3116.66 1.7,-202.18 21,-483.06 43.4,-808.22 52.9,-767.64 118.8,-1723.01 -18.4,-2183.99 -100.2,-336.11 -327.6,-745.17 -668.9,-903.27 z m 3017.6,-1324.89 c -16.3,0 -32.7,0.28 -49.2,0.94 -381,13.6 -1040.7,196.99 -1680.9,467.21 -684.5,288.92 -1186.5,608.32 -1342.8,854.28 l -15,23.6 25.8,10.86 c 340.7,142.42 568.6,550.45 668.2,884.77 134.7,452.76 69.2,1403.41 16.6,2167.28 -22.6,325.91 -41.9,607.37 -43.6,811.05 -5.8,679.39 -84.2,3131.74 -85,3156.44 l -1.3,40.6 35.9,-19 c 9.2,-4.8 930.7,-493.53 1962.5,-1197.36 606.3,-413.6 1131.6,-819.45 1561.2,-1206.43 538.1,-484.67 927.4,-941.12 1156.8,-1356.8 l 4,-7.27 -1.4,-8.21 c -130.1,-744.32 -296.9,-1217.19 -458.2,-1674.58 -69.3,-196.8 -134.9,-382.64 -196.9,-587.18 -83.6,-276.07 -205.7,-771.31 -295,-1132.9 -56.5,-229.26 -101.3,-410.3 -117.2,-459.47 -20.1,-61.83 -114.8,-261.92 -309.2,-443.14 -228.5,-212.94 -516.4,-324.69 -835.3,-324.69" /></g><path
         id="path28"
         style="fill:#fefefe;fill-opacity:1;fill-rule:nonzero;stroke:none"
         d="m 16113.5,2841.5 c -80,-170 -577.5,-364.5 -1270,-290 -960,103.3 -2029.7,723.7 -2620,1016.7 -328.9,163.2 -920,333.3 -1480,-196.7 -586.3,-554.9 -440,-1530 -80,-1680 -6.7,-530 880,-1016.699 2028.1,-735 438.6,-395 1818.6,-121.699 2486.9,315 785.1,512.9 935,1570 935,1570" /><path
         id="path30"
         style="fill:#d8d7d4;fill-opacity:1;fill-rule:nonzero;stroke:none"
         d="m 14875.2,2549 c -225,-528.7 -481.7,-772.5 -1006.7,-971.2 -923.2,-349.5 -1430.4,404.4 -1425,393.7 5.4,-65.1 -520,-538.7 -1040,-281 -520,257.6 -406.2,745.7 -352.5,998.5 -205,-160 -614.2,-220.8 -662.6,59.6 -115.2,-472.9 30.6,-955.2 275.1,-1057.1 -6.7,-530 880,-1016.699 2028.1,-735 438.6,-395 1818.6,-121.699 2486.9,315 785.1,512.9 935,1570 935,1570 -80,-170 -545.8,-367 -1238.3,-292.5" /><path
         id="path32"
         style="fill:#727272;fill-opacity:1;fill-rule:nonzero;stroke:none"
         d="m 12698.5,983.898 9.9,-8.898 c 193.8,-174.598 608.1,-228.602 1136.7,-148.199 488.2,74.301 993.9,252.699 1319.7,465.599 399.8,261.2 629.6,668.8 752,964.7 85.1,205.8 131.5,387.7 154,492.8 -172.9,-151.3 -622.4,-288.7 -1230,-223.3 -822.5,88.6 -1733.9,559.1 -2337,870.5 -105,54.2 -204.2,105.4 -291.4,148.7 -373.6,185.4 -928.8,302.5 -1451.7,-192.5 -366,-346.3 -426.3,-848.1 -366.7,-1172.6 42.9,-233.6 149.8,-412.3 279.1,-466.1 l 15.6,-6.5 -0.2,-16.9 c -2.1,-168.4 92.4,-337.1 266.3,-475.2 306.7,-243.801 922.5,-433.5 1730.9,-235.297 z m 702.3,-243.195 c -319.7,0 -570.2,64.399 -715.9,188.399 -819.7,-197.5 -1446.8,-2.102 -1761.3,247.698 -180.6,143.5 -281.3,319.9 -285,498.5 -139.7,67.6 -248.8,251.4 -293.8,496.4 -36.4,198.4 -26.2,418.8 28.9,620.5 63.5,232.6 185.4,439.2 352.6,597.4 251.8,238.4 535.6,361.2 843.6,365.2 215.9,2.6 439.5,-52.5 664.7,-164.2 87.6,-43.5 187,-94.8 292.2,-149.1 599.7,-309.7 1506.1,-777.6 2319.4,-865.2 683.2,-73.4 1169.7,116.4 1244.7,275.8 l 70.7,150.2 -23.3,-164.3 c -0.4,-2.7 -39.5,-271.2 -174.8,-598.7 -125.1,-302.9 -360.4,-720.3 -771.3,-988.7 -331.5,-216.6 -844.8,-397.897 -1339.5,-473.198 -161.7,-24.601 -313.3,-36.699 -451.9,-36.699" /><path
         id="path34"
         style="fill:#727272;fill-opacity:1;fill-rule:nonzero;stroke:none"
         d="m 12673.2,939.602 c -352.4,383.898 -345.8,1019.498 -157.1,1448.798 264.9,518.1 574.1,434.8 574.1,434.8 -205.7,0 -403.2,-170.1 -528.3,-454.9 -182.2,-414.5 -189.8,-1026.7 148.2,-1394.902 l -36.9,-33.796" /><path
         id="path36"
         style="fill:#727272;fill-opacity:1;fill-rule:nonzero;stroke:none"
         d="m 10638.5,1690.5 c -15.7,385.9 168.4,808.7 492.4,1131 404.3,403.3 766.5,320 766.5,320 -223.7,10.1 -497.2,-122.6 -731.3,-355.5 -309.5,-307.9 -492.5,-726.9 -477.6,-1093.5 l -50,-2" /><g
         transform="scale(1.48053)"
         id="g38"><path
           id="path40"
           style="fill:#c5af97;fill-opacity:1;fill-rule:nonzero;stroke:none"
           d="m 13396.2,4370.45 c 0,0 175.6,-377.63 128.3,-769.38 -47.3,-391.75 -526.8,-1114.47 -641.6,-1188.76 195.8,-425.53 891.5,-898.33 1431.9,-972.63 540.3,-74.29 1073.9,189.12 1073.9,189.12 0,0 331.1,830.65 432.3,1046.92 131.7,281.46 364.7,540.35 418.8,803.77 60.2,293.68 -168.9,695.69 -94.6,1006.39 -668.7,20.27 -2749,-115.43 -2749,-115.43" /></g><g
         transform="scale(1.26083)"
         id="g42"><path
           id="path44"
           style="fill:#dccfc1;fill-opacity:1;fill-rule:nonzero;stroke:none"
           d="m 16124.5,3883.08 c 175.5,459.23 -113.8,1175.5 -146,1264.57 -155.1,-9.6 -248,-15.63 -248,-15.63 0,0 206.2,-443.44 150.7,-903.45 -55.5,-460.02 -618.6,-1308.66 -753.4,-1395.91 19.8,-42.99 80.4,-170.68 108.4,-214.14 332.5,169.57 693.9,756.09 888.3,1264.56" /></g><g
         transform="scale(1.48053)"
         id="g46"><path
           id="path48"
           style="fill:#ad9884;fill-opacity:1;fill-rule:nonzero;stroke:none"
           d="m 16145.2,4485.88 c -200.3,6.08 -1013.7,-0.74 -1373.4,-14.86 33.1,-39.51 562.9,-273.34 616.9,-885.69 20.3,-229.38 -22.7,-491.58 -117,-738.52 -240.4,-628.83 -239.3,-902.24 -446,-1289.19 397.1,36.13 563,71.18 563,71.18 0,0 331.1,830.65 432.3,1046.92 131.7,281.46 364.7,540.35 418.8,803.77 60.2,293.68 -168.9,695.69 -94.6,1006.39" /></g><g
         transform="scale(1.47928)"
         id="g50"><path
           id="path52"
           style="fill:#6b5f55;fill-opacity:1;fill-rule:nonzero;stroke:none"
           d="m 12915,2409.02 c 201.8,-418.45 883.6,-878.41 1414.2,-951.35 499.5,-68.75 1000.3,157.17 1059.3,184.89 30.6,76.52 334.9,837.98 430.7,1042.61 51.6,110.39 118.9,217.67 184,321.44 103.5,165.08 201.3,320.97 233.8,479.22 28.4,138.51 -8.9,300.82 -48.5,472.66 -40.3,174.82 -81.8,355.31 -50.4,514.85 -641.7,15.82 -2474.3,-99.71 -2705.5,-114.52 36.4,-87.67 161,-418.79 120.2,-756.72 -28.1,-232.88 -198.8,-551.42 -297.9,-720.55 -128.8,-219.57 -270.5,-415.88 -339.9,-472.53 z m 1609.1,-998.06 c -65.9,0 -132.6,3.99 -199.5,13.18 -545.2,74.97 -1248,552.77 -1446.1,983.12 l -6.2,13.32 12.3,7.97 c 107,69.23 587.8,789.38 634.6,1177.61 46.2,382.88 -125.2,757.12 -127,760.84 l -10.4,22.38 24.7,1.62 c 20.8,1.35 2090.5,135.61 2753,115.6 l 20.7,-0.61 -4.9,-20.21 c -37.4,-156.77 5,-341.25 46.1,-519.65 40.4,-175.56 78.6,-341.32 48.7,-487.06 -33.6,-164.27 -133.1,-322.66 -238.3,-490.38 -64.5,-102.95 -131.3,-209.36 -182.1,-317.86 -99.9,-213.55 -428.9,-1038.61 -432.2,-1046.93 l -2.4,-6.01 -5.8,-2.84 c -4.7,-2.37 -419.6,-204.09 -885.2,-204.09" /></g><g
         transform="scale(1.39776)"
         id="g54"><path
           id="path56"
           style="fill:#fefefe;fill-opacity:1;fill-rule:nonzero;stroke:none"
           d="m 16300,1725.26 c -228.9,-50.08 -858.5,-71.54 -1323.5,150.24 -465.1,221.78 -1016,708.28 -1359.4,829.9 -343.4,121.62 -708.2,7.15 -987.3,-400.64 -279,-407.8 -286.1,-949.88 178.9,-1172.52 73.9,-251.188 536.6,-451.508 1030.2,-251.188 300.5,-135.932 940.9,-179.573 1502.4,-35.771 894.3,228.939 958.7,879.979 958.7,879.979" /></g><g
         transform="scale(1.39776)"
         id="g58"><path
           id="path60"
           style="fill:#d8d7d4;fill-opacity:1;fill-rule:nonzero;stroke:none"
           d="m 14984.8,1226.25 c -538,-133.72 -1165.8,-87.79 -1191.6,381.75 -170.2,-297.69 -510.8,-320.08 -734.1,-214.27 -209.8,99.51 -173.5,395.92 -80.5,553.31 -153.2,-207.47 -465.6,-205.11 -500.6,44.64 -102.9,-338.32 -21.9,-690.67 330.7,-859.44 73.9,-251.188 536.6,-451.508 1030.2,-251.188 300.5,-135.932 940.9,-179.573 1502.4,-35.771 894.3,228.939 958.7,879.979 958.7,879.979 -113.2,-24.75 -324.3,-42.5 -565.1,-27.33 -96.7,-168.98 -354.2,-373.31 -750.1,-471.68" /></g><g
         transform="scale(1.3995)"
         id="g62"><path
           id="path64"
           style="fill:#727272;fill-opacity:1;fill-rule:nonzero;stroke:none"
           d="m 13822.1,899.394 7,-3.143 c 288.5,-130.546 924.3,-179.208 1488.8,-34.725 455.8,116.755 688.4,346.054 803.2,517.824 95.4,142.77 127.4,269.74 137,321.19 -238.9,-44.3 -848.7,-62.52 -1307.9,156.48 -224.7,107.18 -466.1,273.6 -699.4,434.52 -247.3,170.42 -480.7,331.4 -656.5,393.64 -356.2,126.19 -708,-17.22 -965.4,-393.35 -165.6,-242.09 -227.9,-522.55 -166.9,-750.35 46.9,-174.49 163.9,-310.9 338.5,-394.49 l 7.2,-3.43 2.3,-7.65 c 27.5,-93.47 113.9,-181.209 237,-240.588 218.9,-105.607 506,-105.18 768,1.214 z m 763.7,-161.986 c -37.6,0 -75,0.714 -112.2,2.074 -262.3,9.716 -499.2,53.733 -652.2,121.042 -269.4,-107.181 -564.1,-106.324 -789.9,2.573 -128.9,62.235 -220.8,154.843 -253.5,255.093 -180.3,88.46 -301.4,231.51 -350.5,414 -63.7,237.73 0.5,529.26 172,779.78 267.1,390.57 634.1,538.84 1006.7,406.94 180.3,-63.88 415.6,-226.16 664.8,-397.93 232.3,-160.13 472.5,-325.76 694.6,-431.66 468.2,-223.36 1095.9,-195.64 1310.4,-148.77 l 24,5.29 -2.4,-24.51 c -0.7,-6.79 -18,-169.2 -146.8,-361.84 -118.3,-176.99 -357.2,-413.079 -824.1,-532.549 -228.1,-58.451 -487.4,-89.533 -740.9,-89.533" /></g><g
         transform="scale(1.20276)"
         id="g66"><path
           id="path68"
           style="fill:#727272;fill-opacity:1;fill-rule:nonzero;stroke:none"
           d="m 16067,1010.09 c -109.3,123.47 -156,317.11 -131.7,545.08 101.6,603.61 364.7,674.2 364.7,674.2 -157.9,-116.15 -293.9,-401.49 -323.4,-678.52 -23.1,-216.34 20.1,-398.59 121.5,-513.15 l -31.1,-27.61" /></g><g
         transform="scale(1.14711)"
         id="g70"><path
           id="path72"
           style="fill:#727272;fill-opacity:1;fill-rule:nonzero;stroke:none"
           d="m 15586.1,1375.46 c -87.1,439.1 57.3,770.37 193.7,970.96 259.2,364.57 520.2,388.89 520.2,388.89 -125.5,-40.89 -330.7,-187.69 -484.2,-413.48 -131.7,-193.61 -271.1,-513.64 -187,-937.92 l -42.7,-8.45" /></g><g
         transform="scale(1.58246)"
         id="g74"><path
           id="path76"
           style="fill:#fefefe;fill-opacity:1;fill-rule:nonzero;stroke:none"
           d="M 5844.39,8288.17 C 6226.7,8083.3 6574.26,6420.89 7968.48,5634.2 9191.19,5141.3 10503.5,3898.87 12691.3,3672.19 14700.8,3463.91 15646,4098.68 16300,4591.58 15570.1,5700.55 13304.8,7558.36 13304.8,7558.36 L 7323.91,8771.59 5844.39,8288.17" /></g><g
         transform="scale(1.58246)"
         id="g78"><path
           id="path80"
           style="fill:#d8d7d4;fill-opacity:1;fill-rule:nonzero;stroke:none"
           d="m 13304.8,7558.36 -2156.1,437.35 c -421.9,-226.22 -854.9,-375.86 -1282.1,-613.85 -682.48,-372.84 -1352.33,-720.4 -1851.55,-1339.69 -82.15,-94.78 -176.94,-164.3 -252.77,-271.72 -1.51,-1.9 -3.03,-3.8 -4.55,-5.63 67.49,-45.75 137.64,-89.35 210.75,-130.62 1222.71,-492.9 2535.02,-1735.33 4722.82,-1962.01 2009.5,-208.28 2954.7,426.49 3608.7,919.39 -729.9,1108.97 -2995.2,2966.78 -2995.2,2966.78" /></g><g
         transform="scale(1.58453)"
         id="g82"><path
           id="path84"
           style="fill:#727272;fill-opacity:1;fill-rule:nonzero;stroke:none"
           d="m 7964.87,5641.09 c 383.9,-154.87 780.92,-385.98 1201.23,-630.59 944.1,-549.57 2014.2,-1172.4 3510.2,-1327.46 1919,-198.86 2856,361.37 3581,906.2 -378.9,569.56 -1164.1,1336.48 -1758.3,1881.43 -624.3,572.66 -1173,1025.54 -1218.6,1063.09 L 7315.27,8743.77 5873.63,8272.78 c 125.35,-89.87 244.83,-318.71 405.74,-626.87 310.45,-594.69 779.55,-1493.25 1685.5,-2004.82 z m 5464.83,-2030.5 c -240.9,0 -492.7,13.76 -756.7,41.08 -669.9,69.42 -1316.4,239.95 -1976.5,521.29 -576.4,245.69 -1091.66,545.65 -1546.3,810.27 -419.62,244.24 -816.01,474.97 -1198.08,628.96 l -1.83,0.88 c -404.54,228.27 -755.56,546.91 -1073.25,974.1 -270.24,363.45 -467.33,740.85 -625.64,1044.1 -164.41,314.92 -294.28,563.63 -422.11,632.17 l -32.54,17.42 1516.63,495.54 4.1,-0.82 5976.92,-1212.47 3,-2.46 c 5.6,-4.67 573.4,-470.99 1223,-1066.69 599.8,-550.13 1394.1,-1326.26 1771.5,-1899.74 l 8.1,-12.37 -11.9,-8.9 c -329.4,-248.27 -728.6,-529.43 -1298.7,-723.99 -466.8,-159.36 -981.7,-238.37 -1559.7,-238.37" /></g><g
         transform="scale(1.47874)"
         id="g86"><path
           id="path88"
           style="fill:#c5af97;fill-opacity:1;fill-rule:nonzero;stroke:none"
           d="m 11073.3,11612.6 c 0,0 465.9,74 973.1,-68 507.2,-142 743.9,-324.6 1501.3,-459.8 892.2,-159.4 2076,311 2752.3,317.8 -94.7,-581.6 -1609.5,-4093.55 -1609.5,-4093.55 -872.3,-180.36 -1515.3,-730.89 -2375.8,-903.27 -757.4,-151.68 -1496.9,55.66 -1844,256.3 -534.22,121.73 -2610.51,925.52 -2704.98,1034.66 -202.87,234.46 -8.99,671.72 -263.74,994.09 277.27,622.15 3571.32,2921.77 3571.32,2921.77" /></g><g
         transform="scale(1.33714)"
         id="g90"><path
           id="path92"
           style="fill:#ad9884;fill-opacity:1;fill-rule:nonzero;stroke:none"
           d="m 13728.4,7727.08 c -566.9,-115.62 -1120.5,-65.73 -1330.9,205.51 l -817.9,-565.01 c 383.8,-221.89 1201.5,-451.18 2039.2,-283.44 951.6,190.64 1662.7,799.47 2627.4,998.93 0,0 19.3,44.64 53.8,125.11 -182.4,26.85 -320.3,55.49 -320.3,55.49 -832.8,165.88 -1548.3,-393.15 -2251.3,-536.59" /></g><g
         transform="scale(1.48188)"
         id="g94"><path
           id="path96"
           style="fill:#dccfc1;fill-opacity:1;fill-rule:nonzero;stroke:none"
           d="m 11919.7,11299.6 c 506.1,-141.7 880.8,-413.1 1639.8,-528.5 1066.2,-161.9 1936.2,365.2 2725.9,384.7 14.6,52.7 -25.4,188.7 -19.9,222.7 -674.8,-6.8 -1856.1,-476.2 -2746.5,-317.2 -755.8,135 -992,317.2 -1498.1,458.9 -506.1,141.7 -971,67.9 -971,67.9 0,0 -115.7,-80.7 -305.4,-216 278.6,41 805.3,31.1 1175.2,-72.5" /></g><g
         transform="scale(1.48055)"
         id="g98"><path
           id="path100"
           style="fill:#6b5f55;fill-opacity:1;fill-rule:nonzero;stroke:none"
           d="m 7512.5,8682.47 c 131.57,-172.5 141.23,-378.44 149.74,-560.47 7.7,-163.25 14.93,-317.45 106.79,-423.56 40.45,-46.74 536.42,-260.1 1179.43,-507.31 517.98,-199.18 1225.14,-455.03 1513.24,-520.69 l 2.5,-0.6 2.2,-1.29 c 384.1,-221.94 1120.5,-396.07 1829.9,-254.03 428.7,85.85 811,269.97 1180.8,448.02 368.9,177.7 750.4,361.42 1183.5,452.33 80.2,186.28 1479.9,3443.23 1599.3,4056.63 -255.8,-6 -586.9,-76.4 -936.8,-150.8 -445.6,-94.8 -936.7,-199.2 -1389.5,-199.2 -139.6,0 -275.5,9.9 -405.4,33.1 -479.2,85.6 -750.5,190.1 -1012.9,291.2 -155.3,59.9 -302.2,116.4 -488.1,168.5 -473.2,132.5 -915.7,74.6 -960.9,68.1 -119.5,-83.6 -3258.64,-2285.49 -3553.8,-2899.93 z m 4250.3,-2353.05 c -528.7,0 -1019.2,140.69 -1311,308.67 -291.5,66.94 -997.92,322.52 -1515.44,521.5 -515.55,198.24 -1137.28,452.53 -1192.86,516.7 -99.5,115.02 -107.06,274.9 -114.96,444.16 -8.85,188.65 -18.04,383.64 -148.93,549.32 l -6.35,8.04 4.18,9.32 c 115.98,260.31 752.77,831.86 1892.55,1698.67 847.61,644.7 1671.91,1220.8 1680.21,1226.5 l 3.2,2.3 3.7,0.6 c 4.8,0.7 474.9,72.8 979.1,-68.4 187.6,-52.5 335.1,-109.3 491.3,-169.5 260.9,-100.5 530.7,-204.5 1006.6,-289.4 544.7,-97.3 1202,42.5 1781.9,165.8 361.1,76.8 702.1,149.3 963.9,151.9 l 20.1,0.2 -3.2,-19.8 C 16203,10809.7 14750,7436.72 14688.2,7293.46 l -3.6,-8.11 -8.5,-1.75 c -432.6,-89.43 -814.8,-273.48 -1184.4,-451.46 -371.6,-178.99 -755.9,-364.05 -1188.7,-450.71 -180.3,-36.14 -362.4,-52.01 -540.2,-52.01" /></g><g
         transform="scale(1.01701)"
         id="g102"><path
           id="path104"
           style="fill:#c5af97;fill-opacity:1;fill-rule:nonzero;stroke:none"
           d="m 11803.2,11852.2 c -118,-54 -226.6,-257.9 -295.4,-415.2 -349.1,-83.6 -649,-172.1 -1165.2,-427.7 -516.2,-255.7 -737.43,-442.5 -1201.22,-637.5 -343.59,-144.5 -1238.93,-544.13 -1435.59,-589.95 -498.19,-32.84 -1409.36,-72.17 -2549.96,-911.8 -51.87,-38.14 -102.4,-77.97 -151.59,-119.07 -9.17,-48.97 345.66,-1352.5 1351.19,-2063.21 912.07,-644.64 2475.25,-704.52 2622.97,-711.6 183.28,249.06 169.54,455.95 169.54,455.95 0,0 2430.06,-197.84 4253.86,727.13 2064.8,1047.09 2697.9,2804.02 2898.2,3270.35 l -4496.8,1422.6" /></g><g
         transform="scale(1.0148)"
         id="g106"><path
           id="path108"
           style="fill:#ad9884;fill-opacity:1;fill-rule:nonzero;stroke:none"
           d="m 11819.9,7455.68 c -1035.1,-257.1 -2163.52,-32.92 -2619.26,-194.92 -443.39,-157.66 -640.47,-555.18 -856.79,-870.91 -102.47,-128.89 -210.12,-241.53 -287.8,-298.88 485.04,-83.27 871.92,-98.44 941.89,-101.79 183.68,249.6 169.91,456.93 169.91,456.93 0,0 2435.35,-198.26 4263.15,728.72 793.8,402.64 1492.7,978.13 2030,1688.42 195.9,258.96 370,534 522.1,820.85 94.2,177.47 308.5,664.9 316.9,686.4 -644.9,-928.71 -2277.8,-2368.02 -4480.1,-2914.82" /></g><path
         id="path110"
         style="fill:#dccfc1;fill-opacity:1;fill-rule:nonzero;stroke:none"
         d="m 8248.51,9721.5 c 270,280 1040.56,556.8 1610,860 716.79,381.7 1142.29,799.9 2075.99,1058.8 0,0 -126,9.5 -231,-8.8 -355,-85 -660,-175 -1185,-435 -524.99,-260 -749.99,-450 -1221.66,-648.3 -349.43,-147 -1260,-553.4 -1460,-600 -506.67,-33.4 -1433.33,-73.4 -2593.33,-927.3 -52.75,-38.8 -104.14,-79.3 -154.17,-121.1 -2.41,-12.8 28.73,-294.6 80.42,-444.6 255.43,224.2 813.69,692.5 1413.33,915.8 890,331.4 1335.92,340.2 1665.42,350.5" /><g
         transform="scale(1.01701)"
         id="g112"><path
           id="path114"
           style="fill:#6b5f55;fill-opacity:1;fill-rule:nonzero;stroke:none"
           d="m 8990.38,5951 -23.64,1.08 c -404.84,18.68 -1790.65,125.56 -2625.5,715.63 -529.01,373.84 -870.51,907.17 -1063.85,1288.68 -207.03,408.55 -304.32,761.75 -297.31,799.12 l 1.62,8.65 6.77,5.7 c 50.24,41.98 101.65,82.4 152.79,119.96 483.89,356.24 985.56,609.63 1491.06,753.19 428.23,121.64 778.16,144.35 1033.66,160.87 l 36.17,2.35 c 149.5,35.8 697.88,272.87 1098.76,446.07 132.67,57.4 247.25,106.9 330.95,142.1 260.01,109.4 439.18,213.7 646.65,334.4 160.86,93.8 327.29,190.6 553.19,302.5 533.3,264.1 841.9,350.6 1158.5,426.7 31,70.9 66.9,152.3 107.7,226.2 107.8,173.2 205.3,168 205.3,168 -108.7,-49.8 -206.7,-273.8 -271.5,-422 l -6.3,-14.2 -11.9,-2.9 c -317.9,-76.1 -624.6,-160.7 -1160,-425.8 -224.4,-111.2 -390.04,-207.6 -550.26,-300.9 -200.25,-116.5 -389.38,-226.7 -652.33,-337.3 -83.47,-35.1 -197.95,-84.6 -330.49,-141.9 -404.33,-174.7 -958.08,-414.14 -1109.04,-449.34 l -3.97,-0.59 -38.25,-2.46 c -520.83,-33.73 -1392.54,-90.17 -2498.76,-904.52 -47.1,-34.71 -94.44,-71.78 -140.88,-110.22 9.37,-60.67 94.2,-375.32 299.32,-776.3 190.17,-371.78 525.1,-891.44 1040.78,-1255.94 822.09,-581.02 2191.73,-687.61 2596.68,-706.49 167.07,233.24 157.22,427.24 157.11,429.2 l -1.75,28.32 28.27,-2.26 c 6.07,-0.49 615.83,-48.48 1439.97,16.81 759.8,60.28 1862.5,231.96 2800.8,707.77 1852.8,939.62 2537.6,2439.02 2830.2,3079.32 30.5,67.1 57,125 79.1,169.1 0,0 -49.1,-241.4 -237.4,-614.52 -146,-286.52 -346.7,-634.8 -628.7,-1002.94 -540.2,-705.21 -1220.2,-1268.72 -2021,-1674.82 -945.7,-479.64 -2055.5,-652.5 -2820,-712.97 -730.81,-57.92 -1294.18,-27.04 -1420.43,-18.59 -2.67,-66.27 -25,-241.29 -174.27,-444.14 l -7.82,-10.62" /></g><path
         id="path116"
         style="fill:#fefefe;fill-opacity:1;fill-rule:nonzero;stroke:none"
         d="m 5423.51,9141.5 c -0.75,1.7 -1.33,3.5 -2.02,5.3 -58.7,-39.9 -118.01,-81.8 -177.98,-125.9 C 3974.82,8087 3475.21,6231 4495.16,5976.1 c 58.35,-807.9 868.35,-1121.3 1828.35,-881.3 166.66,-213.3 453.33,-306.6 786.66,-226.6 333.34,80 526.67,420 726.67,513.3 200,93.3 711.75,142.7 1120,506.7 229.95,204.9 307.9,408.6 334.01,532.7 -257.34,20.6 -1597.34,120.6 -2637.34,810.6 -1002.55,665.1 -1195,1455 -1230,1910" /><path
         id="path118"
         style="fill:#d8d7d4;fill-opacity:1;fill-rule:nonzero;stroke:none"
         d="m 6253.51,6171.5 c -135.49,-229.3 -705,-585 -1230,-220 -381.96,265.5 -297.01,956.3 -240,1180 -185,-180 -785,-352.1 -769.92,121.9 -159.79,-616.6 -31.05,-1149.2 481.57,-1277.3 58.35,-807.9 868.35,-1121.3 1828.35,-881.3 166.66,-213.3 453.33,-306.6 786.66,-226.6 333.34,80 526.67,420 726.67,513.3 200,93.3 711.75,142.7 1120,506.7 229.95,204.9 307.9,408.6 334.01,532.7 -132.72,10.6 -550.68,58.3 -800.68,120.3 -166.66,-463.4 -633.33,-494.6 -936.66,-679.7 -191.95,-117.1 -296.67,-313.3 -670,-366.7 -326.31,-46.6 -603.41,205.6 -630,676.7" /><path
         id="path120"
         style="fill:#727272;fill-opacity:1;fill-rule:nonzero;stroke:none"
         d="m 6333.2,5123 10.01,-12.8 c 164.95,-211.1 449.47,-292.5 761.13,-217.7 196.48,47.1 344.46,189.4 475.02,314.8 84.85,81.6 165,158.6 246.91,196.9 57.37,26.7 139.05,49.9 233.63,76.6 248.88,70.5 589.72,167 880.31,426 205.31,183 287.55,363.9 319.76,491.5 -1027.89,84.6 -1957.79,372.8 -2620.29,812.4 -445.41,295.5 -777.18,646.4 -986.12,1042.9 -139.48,264.8 -224.14,550.3 -251.87,849.3 -48.5,-33.4 -96.58,-67.7 -143.36,-102.1 -419.11,-308.6 -779.94,-740 -1016.01,-1214.9 -222.82,-448.2 -312.83,-896.8 -246.93,-1230.8 58.16,-294.7 233.07,-486.6 505.83,-554.8 l 17.57,-4.4 1.3,-18 c 21.6,-299.1 151.99,-543.3 377.06,-706.3 331.06,-239.8 848.74,-295.4 1420.29,-152.5 z m 548.38,-307.8 c -230.6,0 -433.05,87.7 -567.59,251.5 -579.79,-141.6 -1106.16,-81.9 -1446.17,164.4 -232.89,168.7 -369.63,419.2 -396.17,725.3 -282.9,76.9 -464.38,280.2 -525.32,589 -67.98,344.6 23.58,804.9 251.22,1262.8 239.54,481.8 605.74,919.7 1031.14,1232.8 58.15,42.8 118.29,85.4 178.75,126.5 l 25.97,17.6 12.36,-31.9 c 0.23,-0.6 0.44,-1.2 0.71,-1.8 l 1.64,-3.9 0.31,-4.1 c 57.4,-746.2 478.89,-1400.1 1218.9,-1891.1 659.85,-437.8 1589.15,-723.9 2616.69,-805.7 l 37.14,-3 -5.85,-27.8 c -28.54,-135.7 -111.01,-340.5 -341.83,-546.3 -299.17,-266.7 -646.41,-365 -899.96,-436.8 -92.5,-26.2 -172.39,-48.8 -226.11,-73.9 -74.39,-34.7 -151.63,-108.9 -233.4,-187.5 -135.15,-129.9 -288.33,-277.1 -498,-327.4 -80.22,-19.3 -158.85,-28.7 -234.43,-28.7" /><path
         id="path122"
         style="fill:#727272;fill-opacity:1;fill-rule:nonzero;stroke:none"
         d="m 4470.22,5974.3 c -25.17,351.2 31.58,667.4 168.65,939.5 C 4876.01,7344 5096.8,7367 5096.8,7367 4783.96,7170.6 4468.18,6702.5 4520.09,5977.8 l -49.87,-3.5" /><path
         id="path124"
         style="fill:#727272;fill-opacity:1;fill-rule:nonzero;stroke:none"
         d="m 6301.46,5083 c -144.17,269.5 -157.45,576 -111.16,844 84.87,376.2 229.64,501.6 229.64,501.6 -166.09,-276.8 -322.97,-857.3 -74.39,-1322 l -44.09,-23.6" /><path
         id="path126"
         style="fill:#6b5f55;fill-opacity:1;fill-rule:nonzero;stroke:none"
         d="m 8144.53,9891.8 c -1.54,0.3 -155.45,24.9 -308.75,31.4 l 2.13,49.9 c 156.32,-6.6 306.62,-81.3 306.62,-81.3" /><path
         id="path128"
         style="fill:#6b5f55;fill-opacity:1;fill-rule:nonzero;stroke:none"
         d="m 9278.51,6541.2 c -2.76,225.5 116.6,238.2 116.6,238.2 -0.13,-0.2 -68.98,-43.2 -66.6,-237.6 l -50,-0.6" /><path
         id="path130"
         style="fill:#6b5f55;fill-opacity:1;fill-rule:nonzero;stroke:none"
         d="m 11708.9,11607.1 -10.8,48.8 c 102.9,22.6 236.4,-15.6 236.4,-15.6 -1.3,-0.1 -125.9,-11.3 -225.6,-33.2" /><g
         transform="scale(2.02691)"
         id="g132"><path
           id="path134"
           style="fill:#c5af97;fill-opacity:1;fill-rule:nonzero;stroke:none"
           d="m 10541.7,5451.49 c 78.9,-226.95 681.9,-1163.74 1271.1,-1602.54 532.3,-396.46 1473.5,-881.88 1741.8,-1004.18 421.6,-192.22 817.1,-525.23 902.6,-742.31 85.5,-217.08 -29.6,-536.14 -62.5,-585.47 -76.7,16.82 -158.7,33.1 -247.7,32.21 20.8,-95.56 62.4,-193.2 127.7,-270.66 78.9,-93.73 162.8,-167.74 266.4,-231.88 236.8,-148.003 503.2,-133.203 764.7,-162.804 281.8,-36.756 550.2,44.847 821.8,99.215 6.7,71.489 9.6,148.999 9.6,233.659 0,510.62 162.8,1154.41 88.8,1576.24 -74,421.77 -828.8,1405.97 -895.4,1857.4 -66.6,451.38 116.3,1716.8 -905.5,2864.25 -794.2,891.95 -1958.1,1057.18 -2483.7,909.76 -493.7,-138.48 -838.5,-505.89 -1193.7,-572.49 l -206,-2400.4" /></g><g
         transform="scale(1.79377)"
         id="g136"><path
           id="path138"
           style="fill:#dccfc1;fill-opacity:1;fill-rule:nonzero;stroke:none"
           d="m 13519.1,9392.6 c 703.2,167.25 2018.1,-122.64 2780.9,-901.28 -897.5,1007.87 -2212.7,1194.58 -2806.5,1028 -557.9,-156.49 -947.5,-571.64 -1348.9,-646.9 553.1,-33.62 810.8,386.11 1374.5,520.18" /></g><g
         transform="scale(2.02691)"
         id="g140"><path
           id="path142"
           style="fill:#ad9884;fill-opacity:1;fill-rule:nonzero;stroke:none"
           d="m 16226,2792.97 c -74,421.77 -828.8,1405.97 -895.4,1857.4 -66.6,451.38 116.3,1716.8 -905.5,2864.25 -149,167.3 -319.3,323.8 -507.5,446 98.9,-64.18 633.7,-697.61 810.9,-1521.52 144.5,-671.27 68.6,-1390.39 132.2,-1936.15 72.1,-618.77 711.5,-1078.29 879.2,-1788.73 107.9,-456.95 -65.7,-1348.5 -125.3,-1779.745 3,13.814 483.1,42.578 513,48.596 6.7,71.489 9.6,148.999 9.6,233.659 0,510.62 162.8,1154.41 88.8,1576.24" /></g><g
         transform="scale(2.02468)"
         id="g144"><path
           id="path146"
           style="fill:#6b5f55;fill-opacity:1;fill-rule:nonzero;stroke:none"
           d="m 15467.9,863.346 c -48.6,0 -97.6,2.815 -146.8,9.235 -55.5,6.275 -112.3,10.621 -167.3,14.868 -203.6,15.606 -414.2,31.758 -603.3,149.901 -102.5,63.51 -188.2,138.1 -269.5,234.65 -78.3,92.91 -114.1,201.52 -130.5,276.29 l -3.2,14.82 15.2,0.15 c 86.7,0.84 167,-14.37 242.1,-30.62 39.2,69.98 135.1,369.49 57,567.59 -86.6,220.04 -489.1,550.41 -897.2,736.41 -299.2,136.42 -1226.6,619.81 -1745.9,1006.63 -415.8,309.68 -838.5,856.68 -1083.8,1236.69 -172.4,271.4 -181.4,377.54 -181.4,377.54 37.4,-107.27 207.3,-395.07 448.8,-717.25 282.4,-376.85 577.6,-688.4 831.1,-877.17 517.9,-385.69 1443,-867.89 1741.5,-1003.96 413,-188.33 821.2,-524.68 910,-749.8 85.6,-217.66 -25.3,-539.64 -63.9,-597.48 l -4.6,-7.01 -8.3,1.78 c -71.6,15.66 -148.2,30.92 -229.8,31.95 17.1,-71.07 51.8,-167.63 121.7,-250.65 79.7,-94.49 163.4,-167.44 263.8,-229.57 184,-114.982 382.2,-130.194 592.1,-146.294 55.2,-4.249 112.3,-8.595 168.3,-14.966 227.5,-29.685 450.6,19.312 666.3,66.627 47,10.324 95.6,20.991 143.6,30.72 5.9,65.983 8.7,139.283 8.7,223.643 0,210.95 28,446.83 55,675.02 39.8,336.3 77.5,653.98 34.1,900.78 -35.4,201.91 -226.4,530.7 -428.7,878.76 -212.8,366.38 -432.9,745.15 -467.7,981.04 -12.5,84.9 -16.3,199.74 -20.8,332.74 -19.9,597.24 -53.2,1596.9 -882.7,2528.31 -446.5,501.46 -974.3,734.63 -1338.4,841.9 -411.4,121.26 -846.5,146.25 -1135.5,65.15 -251.1,-70.43 -467.5,-206.45 -658.4,-326.52 -81.1,-51.02 -160.3,-100.76 -238.4,-143.33 -205,-110.44 -301.5,-91.37 -301.5,-91.37 171.4,32.15 344,140.71 526.7,255.59 192.3,120.96 410.4,258.02 664.9,329.44 137.6,38.57 311.3,54.48 502.6,45.93 207.5,-9.23 431.1,-47.66 646.6,-111.18 367.2,-108.21 899.4,-343.41 1349.9,-849.22 195.1,-219.09 359.5,-458.14 488.5,-710.43 110.8,-216.53 198.9,-449.55 261.9,-692.6 115.3,-444.91 128.7,-847.15 138.5,-1140.82 4.4,-132.27 8.2,-246.46 20.6,-329.98 34,-231.2 252.9,-607.9 464.6,-972.26 203.4,-350.03 395.5,-680.64 431.7,-886.85 43.9,-250.41 6.1,-569.82 -34,-908 -26.9,-227.44 -54.8,-462.59 -54.8,-672.1 0,-89.05 -3.1,-165.95 -9.6,-235.099 l -0.8,-9.139 -9.1,-1.777 c -50.7,-10.175 -102.3,-21.485 -152.2,-32.449 -171.4,-37.637 -347.6,-76.26 -527.7,-76.26" /></g><g
         transform="scale(2.00644)"
         id="g148"><path
           id="path150"
           style="fill:#fefefe;fill-opacity:1;fill-rule:nonzero;stroke:none"
           d="m 14407.1,1557.43 c -183.6,24.53 -397.3,1.85 -659.6,-245.9 -358.2,-338.313 -408.7,-1081.521 -10,-991.81 44.9,-189.39 438.6,-368.8119 852.3,-224.2774 84.7,-154.5024 740.2,-84.8264 1173.8,139.4514 401,207.383 520.7,440.382 536.4,882.156 -45.3,-14.1 -609.4,-223.428 -1230.1,-92.95 -521.7,109.65 -662.2,525.76 -662.8,533.33" /></g><g
         transform="scale(2.00644)"
         id="g152"><path
           id="path154"
           style="fill:#d8d7d4;fill-opacity:1;fill-rule:nonzero;stroke:none"
           d="m 15783.4,1000.03 c -18.6,-53.08 -5.8,-335.67 -231.7,-507.515 -303.2,-230.609 -877.2,-364.677 -801.8,142.043 -309.7,-417.009 -992.5,-250.046 -802.9,213.161 -294.2,-256.374 -474.4,-166.213 -447.7,44.008 -94.8,-316.379 -29.8,-632.313 238.2,-572.007 44.9,-189.39 438.6,-368.8119 852.3,-224.2774 84.7,-154.5024 740.2,-84.8264 1173.8,139.4514 401,207.383 520.7,440.382 536.4,882.156 -24.4,-7.57 -261.2,-94.59 -516.6,-117.02" /></g><g
         transform="scale(2.00805)"
         id="g156"><path
           id="path158"
           style="fill:#727272;fill-opacity:1;fill-rule:nonzero;stroke:none"
           d="m 14583.9,110.606 5.1,-9.264 c 76.5,-139.5379 710,-86.4021 1156.3,144.419 374.4,193.672 509.4,410.199 528.5,852.869 -135.4,-45.17 -277.1,-79.28 -421.4,-101.394 -280.4,-43.026 -548.6,-38.394 -797.1,13.894 -273.5,57.47 -441,199.65 -533.3,308.81 -85.1,100.49 -125,194.02 -135.7,224.89 -159.3,20.07 -375,8.07 -641.3,-243.42 -116.6,-110.1 -209.8,-275.49 -255.6,-453.722 -43.4,-168.572 -38.7,-326.734 12.6,-423.096 44.4,-83.465 121.1,-115.634 221.8,-92.977 l 12,2.69 2.8,-11.952 c 15.4,-64.889 76.2,-130.574 166.7,-180.175 144.8,-79.2807 396.5,-130.1755 668.7,-35.058 z M 14861.3,0 c -148,0 -250.9,27.9383 -288.5,80.3757 -104.3,-35.2565 -205.7,-49.6984 -299.4,-49.749 -154.4,0 -288.1,39.3417 -380.1,89.7383 -91.4,50.099 -154.7,116.78 -175.7,184.508 -134.8,-25.597 -203.5,43.973 -237.6,108.016 -54.1,101.69 -59.6,266.578 -14.7,440.975 47,182.666 142.7,352.376 262.6,465.676 278.3,262.79 503.9,271.11 669.4,248.95 l 10,-1.3 0.7,-9.06 c 2.3,-7.37 36.3,-109.56 137.2,-227.09 89.6,-104.23 251.7,-240.18 515.2,-295.56 526.1,-110.603 1021.8,25.05 1210.5,88.5 5.7,1.89 9.8,3.28 12.3,4.03 l 16.8,5.23 -0.6,-17.53 C 16282.8,650.034 16145.8,424.94 15756.7,223.651 15554.1,118.823 15284.3,39.2425 15035.2,10.7575 14972.1,3.53655 14913.9,0 14861.3,0" /></g><g
         transform="scale(1.75313)"
         id="g160"><path
           id="path162"
           style="fill:#727272;fill-opacity:1;fill-rule:nonzero;stroke:none"
           d="m 15708.6,362.439 c -27.9,111.742 7.1,256.399 98.6,407.214 44.1,72.669 97.4,140.891 155,200.554 185.2,188.003 337.8,188.003 337.8,188.003 -151.6,-36.27 -348.6,-205.913 -468.4,-403.332 -87.5,-144.311 -121.4,-281.209 -95.3,-385.48 l -27.7,-6.959" /></g><g
         transform="scale(1.83163)"
         id="g164"><path
           id="path166"
           style="fill:#727272;fill-opacity:1;fill-rule:nonzero;stroke:none"
           d="m 15969.8,98.819 c -36.2,77.964 12.9,253.546 66,380.209 15.8,37.78 34.7,77.799 55.9,116.997 123.9,211.78 208.3,211.78 208.3,211.78 -172.4,-94.942 -362.4,-575.061 -305.4,-697.521 l -24.8,-11.465" /></g><g
         transform="scale(2.33104)"
         id="g168"><path
           id="path170"
           style="fill:#c5af97;fill-opacity:1;fill-rule:nonzero;stroke:none"
           d="m 11843.6,6836.85 c 514.8,-8.58 1788.8,418.66 2118.9,1598.39 289.4,1033.87 -136.3,1972.06 -943.5,2338.06 -367.6,166.6 -913.8,248.8 -1276.1,3.6 0,244.6 257.4,469.8 418.3,495.5 -402,-73 -937.4,131 -1471.6,-113.1 -463.4,-211.6 -689.74,-443 -844.87,-691.2 -167.6,579.7 77.22,1537.8 424.67,1814.5 -244.5,-128.7 -647.36,-102.9 -647.36,-102.9 469.76,143.7 898.36,1029.5 1728.36,1093.9 -295.9,77.2 -604.8,308.8 -656.3,411.8 341,-135.2 714.2,-154.5 1093.9,-135.2 379.6,19.3 1647.2,263.9 2773.3,-373.2 1126,-637 1878.9,-1917.5 1716.6,-3725.04 -176.6,-1967.11 -1988.7,-3178.2 -3700.6,-3186.01 l -733.7,570.9" /></g><g
         transform="scale(2.15548)"
         id="g172"><path
           id="path174"
           style="fill:#dccfc1;fill-opacity:1;fill-rule:nonzero;stroke:none"
           d="m 11896.7,13557.5 c -182.5,-15.5 -897.3,-240.2 -1088.3,-242.5 284.2,86.9 606.7,358.6 949.1,620.2 417.6,319.1 1326.4,227.9 1721.9,258.5 -287.7,104.4 -763.8,108.8 -986.2,314.2 408.8,-69.1 682.1,-5 1092.6,15.9 242.9,12.3 543.8,29.8 1428.5,-159.1 523.3,-111.7 762.2,-229.2 1285.7,-508.9 -176.7,151.5 -367.2,284.5 -568.6,398.5 -1217.8,688.9 -2588.6,424.5 -2999.2,403.6 -410.6,-20.9 -814.1,0 -1183,146.1 55.7,-111.3 389.7,-361.8 709.8,-445.3 -897.6,-69.6 -1361.1,-1027.6 -1869.1,-1183 0,0 435.6,-27.8 700.1,111.3 -375.8,-299.2 -640.6,-1335.4 -459.3,-1962.3 -181.3,626.9 291.7,1835.1 1266,2232.8" /></g><g
         transform="scale(2.04223)"
         id="g176"><path
           id="path178"
           style="fill:#ad9884;fill-opacity:1;fill-rule:nonzero;stroke:none"
           d="m 14153,12744.6 c 229.4,177.5 347.6,227.3 695.3,286 -186.1,146.9 -778.6,249.8 -1336.6,255 -416.2,3.9 -688.6,-27.8 -1081.2,-164.1 -549.3,-190.6 -982.1,-573 -1210.3,-1168.8 177.1,283.3 435.5,547.5 964.3,789 609.8,278.6 1220.9,45.7 1679.8,129.1 -183.6,-29.4 -477.4,-286.5 -477.4,-565.6 413.5,279.8 1036.9,186.1 1456.5,-4.2 921.3,-417.7 1407.2,-1488.6 1077,-2668.62 195.1,510.12 379.6,1606.52 -296.1,2473.12 -589,755.5 -1308.8,644.9 -1471.3,639.1" /></g><g
         transform="scale(2.33104)"
         id="g180"><path
           id="path182"
           style="fill:#ad9884;fill-opacity:1;fill-rule:nonzero;stroke:none"
           d="m 14546.6,13180.7 c 1126,-637 1607.2,-1803.7 1473.5,-3510.57 -137.3,-1752.69 -1829.2,-3050.82 -3457.5,-3400.53 1711.9,7.85 3524,1218.94 3700.6,3186.04 162.3,1807.56 -590.6,3088.06 -1716.6,3725.06" /></g><g
         transform="scale(2.33104)"
         id="g184"><path
           id="path186"
           style="fill:#6b5f55;fill-opacity:1;fill-rule:nonzero;stroke:none"
           d="m 12557.7,6270.37 c 1676.3,7.68 3516.6,1201.57 3694.8,3186.23 149.1,1661.2 -474.6,3015.2 -1711.2,3714.8 -969.9,548.7 -2047.4,441.1 -2565.3,389.4 -80.6,-8 -150.3,-15 -202.2,-17.6 -82.1,-4.2 -160.4,-6.3 -235.2,-6.3 -332.3,0 -596.4,41.8 -832.6,130.4 80.8,-106.7 355.9,-307.6 632.4,-379.7 l 61.9,-16.1 -63.7,-5 c -500,-38.7 -850.6,-375.4 -1160,-672.4 -184.12,-176.7 -345.46,-331.6 -513.2,-401.8 118.44,-1.7 400.6,5.8 586.3,103.5 l 81.2,44.8 -69.5,-62.7 c -164,-130.6 -314.18,-425.1 -401.78,-787.7 -87.9,-364.2 -97.04,-724 -25.7,-992.3 84.99,132.1 179.48,241 295.88,341.3 144.1,124.2 321,233.3 540.6,333.6 336.8,153.8 676.6,130.8 976.4,110.4 176.3,-12 342.9,-23.3 490.3,2.1 2.5,0.5 98.1,5.5 100.6,5.9 0,0 -94.2,-26.5 -96.6,-27 -78.3,-15.2 -178,-77.7 -256.2,-161.1 -88.2,-94.1 -139.3,-200.6 -145.3,-302.2 164.8,105.1 380.4,154.6 625.2,143 213.8,-10.1 442.5,-65.9 643.9,-157.2 201,-91.1 379.9,-217.9 532,-376.7 150.3,-157.1 270.2,-341.3 356.4,-547.49 87.5,-209.31 137.8,-435.76 149.6,-673.06 12.2,-246.46 -17.6,-499.95 -88.5,-753.44 -182.6,-652.33 -643.1,-1043.23 -997.2,-1256.26 -308.8,-185.71 -632.9,-294.38 -886.7,-338.01 -191.9,-30.11 -249.6,-0.81 -249.6,-0.81 5.4,-0.09 10.9,-0.13 16.4,-0.13 567.1,0 1781.4,475.24 2096.4,1601 277.8,992.84 -107.8,1949.1 -937.7,2325.4 -379.2,171.9 -917.6,240 -1265.6,4.5 l -16.7,-11.3 v 20.2 c 0,113.1 53.9,232.8 151.7,337.1 54,57.6 116.3,104.7 176.4,134.9 -124.6,-9.5 -259.3,-0.4 -400.3,9.2 -297.2,20.2 -634.2,43.1 -966,-108.5 -509.5,-232.8 -716.63,-489.5 -840.18,-687.2 l -12.7,-20.4 -6.7,23.1 c -79.23,274 -72.28,648.1 19.05,1026.4 79.54,329.2 210.73,603.6 357.83,752.9 -244.96,-96.1 -586.22,-75.7 -589.96,-75.4 l -58.68,3.7 56.24,17.2 c 182.24,55.7 356.15,222.7 557.5,416 157.2,151 319.9,307.1 510.9,434.7 201.3,134.4 400.5,212.6 607.1,238.1 -273.3,87.6 -557.8,297.7 -609.9,401.8 l -12.6,25.2 26.1,-10.4 c 293.6,-116.3 629.6,-157.7 1089.4,-134.4 51.4,2.6 120.8,9.6 201.2,17.6 520,51.9 1602.1,159.9 2578,-392.2 285.9,-161.7 544.5,-363.1 768.5,-598.5 231.4,-243 425.5,-522.1 577.2,-829.6 158.2,-320.7 270.9,-673.8 334.7,-1049.4 67.1,-394.4 81.1,-817.53 41.6,-1257.82 -42.7,-474.92 -182,-923.26 -414.1,-1332.48 -216.6,-381.76 -508.3,-720.79 -866.9,-1007.66 -342.8,-274.13 -731.4,-489.09 -1155.2,-638.94 -360.1,-127.33 -728,-201.54 -1096.3,-221.32 -121.8,-4.63 -183.7,16.09 -183.7,16.09" /></g><g
         transform="scale(1.55735)"
         id="g188"><path
           id="path190"
           style="fill:#c5af97;fill-opacity:1;fill-rule:nonzero;stroke:none"
           d="m 10205.5,15026.5 c 0,0 322,465.9 1078.7,712.7 794.1,259 2027,220.5 2363,301.8 221.3,53.6 445.2,259 629.3,154.1 312.2,-177.9 -96.3,-2540.8 -1008.1,-3723.2 -911.8,-1182.5 -2080.5,-1246.8 -2530,-1118.3 -359.6,629.2 -532.9,3672.9 -532.9,3672.9" /></g><g
         transform="scale(1.5505)"
         id="g192"><path
           id="path194"
           style="fill:#ad9884;fill-opacity:1;fill-rule:nonzero;stroke:none"
           d="m 14339.5,16266.7 c -46.8,26.6 -96.1,33.3 -147.4,27.5 153.1,-289.2 -180.3,-2393.2 -1078,-3557.4 -915.8,-1187.8 -1954.2,-1155 -2405.6,-1026 -36.8,64.3 -70.6,148.5 -101.7,247.9 53.5,-243.5 113.1,-439.7 179.1,-555 451.4,-129 1625.2,-64.5 2541.1,1123.3 915.8,1187.7 1326.2,3561 1012.5,3739.7" /></g><g
         transform="scale(1.54967)"
         id="g196"><path
           id="path198"
           style="fill:#dccfc1;fill-opacity:1;fill-rule:nonzero;stroke:none"
           d="m 11402.5,15655.1 c 798,260.3 1980.4,296.3 2318.8,375.1 249.5,58 316.2,169.9 457.8,269.8 -145.8,-25.2 -305.7,-141.1 -464.3,-179.5 -337.7,-81.7 -1576.6,-43 -2374.7,-303.3 -760.4,-248 -1084.1,-716.3 -1084.1,-716.3 0,0 7.3,-127.3 21.9,-335.4 -3.8,90.2 62,0 62,0 0,0 302.2,641.6 1062.6,889.6" /></g><g
         transform="scale(1.55566)"
         id="g200"><path
           id="path202"
           style="fill:#6b5f55;fill-opacity:1;fill-rule:nonzero;stroke:none"
           d="m 10760.8,11379.6 c 384.3,-106.2 1564.5,-109.6 2509.2,1115.6 479.6,622 761.9,1484.8 887.5,1943.7 181.3,662.2 262.7,1308 202.7,1607.2 -16.2,80.7 -42.5,133.5 -76.2,152.6 -114.2,65.1 -247.9,1.7 -389.4,-65.3 -74.6,-35.4 -151.7,-71.9 -228.8,-90.6 -119,-28.8 -343.6,-42.4 -627.8,-59.7 -515.6,-31.3 -1221.5,-74.1 -1736.5,-242.1 -704.9,-229.9 -1033.4,-655.2 -1068.6,-703 8.8,-148.2 183.4,-3039.4 527.9,-3658.4 z m 377.2,-76.7 c -158.6,0 -292.9,19.1 -392.4,47.6 l -6.2,1.8 -3.3,5.6 c -150.4,263.2 -286.2,963.3 -403.8,2081 -87.4,831.2 -131.4,1595.3 -131.8,1602.9 l -0.3,5.6 3.1,4.5 c 3.3,4.8 83.8,120.1 258.8,267.3 161,135.5 435.6,323.9 829.4,452.4 518.9,169.2 1227.3,212.2 1744.5,243.6 282.7,17.1 506,30.7 622.2,58.8 73.9,17.9 149.5,53.8 222.7,88.4 149.2,70.8 290.3,137.6 419,64.2 42.6,-24.2 73.4,-82.8 91.8,-174.2 61.9,-308.3 -17.9,-945 -203.2,-1621.9 -126.1,-461.3 -410.1,-1328.6 -893,-1954.9 -214.3,-277.9 -456.9,-512 -721.1,-695.8 -228.2,-158.7 -472.6,-280.4 -726.7,-361.6 -262,-83.8 -505.9,-115.3 -709.7,-115.3" /></g><g
         transform="scale(1.48169)"
         id="g204"><path
           id="path206"
           style="fill:#f59191;fill-opacity:1;fill-rule:nonzero;stroke:none"
           d="m 11253.1,14342.8 c 0,0 574.1,674.5 1390.3,1093.3 767.1,393.7 1646.7,570.3 1936.9,863.9 -20.2,-506.2 -222.7,-1788.5 -897.6,-2807.6 -464.5,-701.4 -1376.1,-1322.8 -2247.4,-1248.6 -229.5,688.4 -182.2,2099 -182.2,2099" /></g><g
         transform="scale(1.48169)"
         id="g208"><path
           id="path210"
           style="fill:#f0807f;fill-opacity:1;fill-rule:nonzero;stroke:none"
           d="m 12778.1,15085.2 c 776.4,560.1 1707.8,816.6 1802.2,1214.8 -290.2,-293.6 -1169.8,-470.2 -1936.9,-863.9 -816.2,-418.8 -1390.3,-1093.3 -1390.3,-1093.3 0,0 -7.1,-679 -2.3,-980.7 326.2,650 1010.4,1350.1 1527.3,1723.1" /></g><g
         transform="scale(1.48558)"
         id="g212"><path
           id="path214"
           style="fill:#6b5f55;fill-opacity:1;fill-rule:nonzero;stroke:none"
           d="m 11417.8,12227.6 c 870.6,-68.1 1772.2,570 2215.1,1238.7 640.8,967.7 860.2,2196.8 890.5,2750.3 -176.2,-153.8 -512.6,-276.9 -898.5,-418.2 -315.7,-115.6 -673.5,-246.6 -1007,-417.7 -767.5,-393.9 -1326.3,-1023 -1377.7,-1082 -2.9,-99.8 -36.3,-1414.1 177.6,-2071.1 z m 130.7,-38.7 c -48.6,0 -96.8,2 -144.6,6.1 l -11,0.9 -3.5,10.5 c -227.2,681.6 -183.1,2085.3 -182.7,2099.3 l 0.2,6 3.9,4.4 c 5.7,6.7 584.1,680.1 1391.8,1094.6 335.3,172 694.1,303.4 1010.7,419.3 406,148.6 756.6,277 916.9,439.1 l 30.5,30.9 -1.7,-43.4 c -5.1,-125.6 -34.6,-584.4 -203.4,-1212 -164.6,-612.2 -398.4,-1149.4 -694.7,-1596.8 -239.7,-362.1 -585.7,-688.1 -974.1,-918 -379.1,-224.4 -769.6,-340.9 -1138.3,-340.9" /></g><g
         transform="scale(1.50308)"
         id="g216"><path
           id="path218"
           style="fill:#6b5f55;fill-opacity:1;fill-rule:nonzero;stroke:none"
           d="m 14385.5,16057.3 -25.5,21.3 c 98.1,117.7 166.2,220.4 166.9,221.4 0,0 -42.1,-123.6 -141.4,-242.7" /></g><g
         transform="scale(1.95776)"
         id="g220"><path
           id="path222"
           style="fill:#c5af97;fill-opacity:1;fill-rule:nonzero;stroke:none"
           d="m 4249.74,13640.6 c 42.67,337.1 -141.21,825.7 -482.67,1448 -292.64,533.3 -399.19,1180.8 -460.48,1196.1 -61.29,15.3 -1338.21,-446.9 -1914.57,-1755.4 -491.24,-1115.3 -91.93,-2191.2 245.17,-2581.9 674.21,367.8 2612.55,1693.2 2612.55,1693.2" /></g><g
         transform="scale(1.7726)"
         id="g224"><path
           id="path226"
           style="fill:#ad9884;fill-opacity:1;fill-rule:nonzero;stroke:none"
           d="m 1661.52,16300 c -43.9,-81 -85.43,-165.3 -124.09,-253 -542.559,-1231.8 -101.54,-2420.1 270.77,-2851.6 101.04,55.1 227.83,129.7 371.45,217.5 -360.02,333.1 -788.17,1080.5 -518.13,2887.1" /></g><g
         transform="scale(1.95734)"
         id="g228"><path
           id="path230"
           style="fill:#dccfc1;fill-opacity:1;fill-rule:nonzero;stroke:none"
           d="m 3767.87,15091.8 c -292.69,533.5 -399.27,1181 -460.57,1196.4 -47.38,11.8 -820.85,-261.6 -1435.95,-990.4 761.82,684.8 1304.67,832.7 1358.82,819.2 61.31,-15.3 156.62,-616.3 460.3,-1143.6 209.03,-362.9 512.81,-756.1 560.18,-1329.9 42.68,337.2 -141.25,825.9 -482.78,1448.3" /></g><g
         transform="scale(1.9586)"
         id="g232"><path
           id="path234"
           style="fill:#6b5f55;fill-opacity:1;fill-rule:nonzero;stroke:none"
           d="m 3300.02,16265.4 c -44.32,0 -374.95,-116.5 -757.33,-383.4 -354.86,-247.6 -840.62,-685.3 -1139.58,-1364 -272.15,-617.9 -251.95,-1186.5 -187.08,-1554.6 82.71,-469.5 271.63,-825.1 423.44,-1004.9 657.42,360.9 2489.35,1610.4 2596.49,1683.6 36.95,311.9 -116.26,767.9 -481.69,1433.9 -177.67,323.8 -286.75,688.8 -358.93,930.4 -36.68,122.7 -74.6,249.6 -93.32,258.9 -0.58,0.1 -1.25,0.1 -2,0.1 z m -1666.47,-4339.2 -6.73,7.8 c -155.12,179.8 -351.1,543.5 -435.93,1024.9 -65.48,371.7 -85.87,945.6 188.85,1569.4 302.6,686.9 794.76,1129 1154.35,1378.8 387.08,269 734.67,392.9 774.18,383 29.73,-7.4 51.88,-76.8 111.53,-276.4 71.88,-240.5 180.49,-604 356.85,-925.4 370.38,-675 524.15,-1137.4 483.94,-1455.1 l -0.72,-5.7 -4.74,-3.3 C 4235.75,13611 2309.37,12294.8 1642.6,11931.1 l -9.05,-4.9" /></g><g
         transform="scale(1.89508)"
         id="g236"><path
           id="path238"
           style="fill:#f59191;fill-opacity:1;fill-rule:nonzero;stroke:none"
           d="m 1920.87,12635.4 c 0,0 -451.14,714.7 -292.85,1663.3 158.3,948.6 1033.35,1750.7 1413.17,2001.3 -99.31,-490.7 160.64,-945.6 253.4,-1488.9 98.5,-577 -87.95,-1035.9 -87.95,-1035.9 L 1920.87,12635.4" /></g><g
         transform="scale(1.89508)"
         id="g240"><path
           id="path242"
           style="fill:#f0807f;fill-opacity:1;fill-rule:nonzero;stroke:none"
           d="m 3294.59,14811.1 c -92.76,543.3 -352.71,998.2 -253.4,1488.9 -314.87,-207.8 -970.08,-794.5 -1275.13,-1529.5 339.48,666.7 848.72,1057.5 1102.86,1155.7 6.16,-374.6 177.66,-580.4 239.05,-1209.2 39.37,-403.2 -67.14,-871.3 -173.71,-1183.3 l 272.38,241.5 c 0,0 186.45,458.9 87.95,1035.9" /></g><g
         transform="scale(1.89839)"
         id="g244"><path
           id="path246"
           style="fill:#6b5f55;fill-opacity:1;fill-rule:nonzero;stroke:none"
           d="M 3017.15,16243.1 C 2663.26,16000 1797.47,15226.2 1638.17,14271.6 c -81.14,-486.2 2.1,-909.1 86.21,-1178.3 77.11,-246.8 168.99,-412.9 196.27,-459.5 l 1269.29,1125.1 c 15.12,39.3 178.49,481.9 85.92,1024.1 -31.64,185.3 -82.99,360.8 -132.65,530.5 -92.6,316.4 -180.22,615.9 -126.06,929.6 z m -1102.49,-3649.9 -8.28,13.2 c -1.13,1.7 -114.57,183.2 -206.86,478.1 -85.13,272.1 -169.38,699.7 -87.33,1191.4 37.09,222.3 116.18,451.2 235.07,680.4 101.99,196.6 233.25,393.8 390.14,586 284.58,348.6 595.32,611 791.24,740.2 l 26.44,17.5 -6.29,-31.1 c -64.48,-318.6 24.98,-624.3 119.7,-948 49.87,-170.4 101.44,-346.7 133.33,-533.5 51.12,-299.4 24.38,-566.3 -7.05,-737.6 -34.09,-185.7 -81.06,-302.4 -81.53,-303.6 l -1.15,-2.9 -2.31,-2 -1295.12,-1148.1" /></g><g
         transform="scale(1.91728)"
         id="g248"><path
           id="path250"
           style="fill:#6b5f55;fill-opacity:1;fill-rule:nonzero;stroke:none"
           d="m 3018.77,16108.7 -25.59,5 c 24.43,124.3 78.8,186.3 78.8,186.3 -0.29,-0.7 -29.36,-70 -53.21,-191.3" /></g><g
         transform="scale(1.67984)"
         id="g252"><path
           id="path254"
           style="fill:#c5af97;fill-opacity:1;fill-rule:nonzero;stroke:none"
           d="m 10036.6,8728.67 c -73.06,11.84 -138.66,26.67 -190.69,43.39 71.44,-151.8 419.59,-303.6 419.59,-303.6 -828.02,15.36 -1464.27,-642.91 -2750.04,-866.09 -1285.77,-223.23 -2509.05,142.81 -2714.42,241.04 -103.35,-23.46 -552.74,-110.67 -971.23,80.84 -351.22,160.73 -506.71,461.89 -591.36,669.22 -491.06,276.82 -1327.57,689.35 -1875.06,1866.13 -598.266,1285.8 -267.88,1776.9 -1135.1,2395.7 50.777,12.7 213.234,-5.1 322.947,-41.1 27.504,-9 51.67,-19.2 69.945,-30.3 -195.729,182.3 -339.076,265.1 -543.6799,376.9 503.9759,-67.4 833.4109,15.9 1178.6779,337.4 238.83,222.3 1591.4,1920.8 2662.93,2361.3 1071.53,440.5 2438.32,302.1 3522.65,-111.3 894.43,-341.1 1589.61,-751.5 2126.69,-1615.1 910.95,-1464.5 583.35,-3608.4 636.95,-4278.08 41.3,-516.54 310.2,-1002.59 649.5,-1082.96 -155.6,-91.91 -540.7,-88.64 -818.3,-43.39" /></g><g
         transform="scale(1.48836)"
         id="g256"><path
           id="path258"
           style="fill:#ad9884;fill-opacity:1;fill-rule:nonzero;stroke:none"
           d="m 12251.4,9900.55 c -383,90.7 -686.4,639.25 -733,1222.25 -60.5,755.9 309.2,3175.7 -718.9,4828.6 -77.3,124.2 -157.5,240.1 -240.6,348.6 412.6,-806.3 523.5,-1664.2 565,-2713.9 62.3,-1572.8 -263.2,-2403 224.3,-3352.4 -412.1,-29.1 -723.4,34.8 -940.7,159.1 6.8,-124.3 193.8,-456.91 355,-548.76 -574.5,-24.72 -1195.54,-629.01 -2743.95,-799.53 -997.47,-109.86 -1363.42,135.45 -2125.65,187.18 -361.69,24.53 -921.06,-225.75 -1402.38,7.66 -483.76,234.56 -433.26,606.91 -896.99,915.95 -458.36,305.5 -1221.97,772.6 -1676.31,1607.8 -540.26,993.3 -490.48,2346 -1659.549,2746 978.779,-698.4 605.909,-1252.6 1281.109,-2703.8 617.98,-1328.2 1562.05,-1793.9 2116.32,-2106.31 95.51,-233.95 271.04,-573.86 667.45,-755.27 472.33,-216.14 979.49,-117.78 1096.15,-91.24 231.78,-110.86 1612.45,-524.06 3063.65,-272.11 1451.12,251.96 2169.25,994.92 3103.85,977.52 0,0 -393,171.33 -473.6,342.66 282.1,-90.7 917.1,-131.02 1138.8,0" /></g><g
         transform="scale(1.32615)"
         id="g260"><path
           id="path262"
           style="fill:#fefefe;fill-opacity:1;fill-rule:nonzero;stroke:none"
           d="m 13003.5,10727.1 c -1048.9,19.4 -1854.9,-814.4 -3483.59,-1097.1 -1628.7,-282.77 -3178.24,180.9 -3438.39,305.32 -130.91,-29.71 -700.15,-140.18 -1230.25,102.38 -444.9,203.6 -641.87,585.1 -749.09,847.7 -622.03,350.7 -1681.64,873.2 -2375.16,2363.9 -757.83,1628.7 -339.32,2250.8 -1437.842,3034.6 64.319,16.1 270.105,-6.4 409.079,-52.1 1471.483,-565 3439.223,-1968.2 3775.993,-2268.7 1229.78,295 2753.15,-754.6 2951.84,-1036.6 684.4,149.8 3100.61,-901 4324.61,-1468.5 450.1,-208.6 738.9,-352.1 721.2,-346.3 90.5,-192.3 531.6,-384.6 531.6,-384.6" /></g><g
         transform="scale(1.32484)"
         id="g264"><path
           id="path266"
           style="fill:#d8d7d4;fill-opacity:1;fill-rule:nonzero;stroke:none"
           d="m 13016.3,10737.7 c -1050,19.4 -1856.7,-815.22 -3487,-1098.2 -1630.31,-283.05 -3181.37,181.08 -3441.78,305.62 -131.04,-29.74 -700.84,-140.32 -1231.47,102.48 -445.34,203.8 -642.49,585.7 -749.83,848.6 -622.64,351 -1683.3,874 -2377.49,2366.1 C 970.146,14892.7 1389.06,15515.4 289.463,16300 1602.83,15850.5 1546.9,14330.9 2153.84,13215.1 c 510.47,-938.4 1368.31,-1463 1883.24,-1806.3 520.97,-347.2 464.21,-765.5 1007.67,-1029.1 540.74,-262.1 1169.12,19.1 1575.51,-8.6 856.26,-58.1 1267.41,-333.7 2387.99,-210.3 1739.55,191.6 2437.25,870.6 3082.65,898.3 -119,67.7 -250.4,252 -328.7,410.2 450.6,-208.9 739.8,-352.4 722,-346.7 90.6,-192.5 532.1,-384.9 532.1,-384.9" /></g><g
         transform="scale(1.67985)"
         id="g268"><path
           id="path270"
           style="fill:#dccfc1;fill-opacity:1;fill-rule:nonzero;stroke:none"
           d="m 1403.01,13414.8 c 238.81,222.4 1535.85,1865.3 2607.38,2305.8 1071.53,440.5 2355.37,222.2 3431.36,27.5 -1084.32,413.5 -2451.11,551.9 -3522.63,111.4 C 2847.59,15419 1494.98,13720.5 1256.17,13498.2 910.9,13176.7 581.503,13093.4 77.4904,13160.8 c 527.8266,-242.1 980.2496,-67.4 1325.5196,254" /></g><g
         transform="scale(1.67413)"
         id="g272"><path
           id="path274"
           style="fill:#727272;fill-opacity:1;fill-rule:nonzero;stroke:none"
           d="m 10895.3,8816.48 c -157.6,37.39 -309.8,169.58 -428.4,372.25 -116.3,198.61 -191.5,447.64 -211.8,701.08 -11.6,144.99 -5.3,355.79 2.5,622.79 27.8,943.3 74.2,2522.2 -643.81,3676.7 -256.2,412 -562.56,742.7 -936.49,1011.1 -320.76,230.3 -692.36,420.1 -1204.81,615.5 -569.37,217.1 -1183.72,347.9 -1776.7,378.1 -316.49,16.2 -623.51,3.3 -912.53,-38.2 -307.14,-44.1 -595.28,-121 -856.44,-228.3 -867.91,-356.8 -1915.42,-1529.2 -2418.83,-2092.6 -122.67,-137.3 -211.3,-236.5 -257.7,-279.7 C 913.97,13242.1 596.708,13151.4 79.7361,13220.6 L 0,13231.3 l 70.5942,-38.6 c 184.8028,-101 316.2838,-177.1 477.7518,-317.7 -112.067,34.8 -269.878,51.9 -322.89,38.7 l -31.39,-7.9 26.338,-18.8 c 529.52,-377.9 609.914,-706.4 731.62,-1203.7 75.726,-309.5 169.966,-694.6 402.476,-1194.3 229.25,-492.68 525.86,-894.81 906.79,-1229.25 322.21,-282.89 638.37,-458.98 892.41,-600.49 28.95,-16.13 56.97,-31.72 83.97,-46.95 87.52,-213.19 244.93,-512.57 599.02,-674.56 408.91,-187.14 846.5,-112.78 979.01,-83.27 118.63,-55.19 476.4,-167.19 954.75,-240.96 243.37,-37.51 559.89,-71.02 914.41,-71.02 269.51,0 561.01,19.35 858.77,71.08 632.87,109.85 1108.28,323.93 1527.67,512.86 433.47,195.21 807.88,363.54 1229.1,356.01 l 75,-1.43 -68.8,30.04 c -3.2,1.38 -297.4,130.82 -394.69,265.69 0.9,-0.24 1.79,-0.47 2.63,-0.71 -19.71,15.71 -38.88,32.97 -60.15,44.2 l 11.59,-24.61 c 55.31,-117.56 263.32,-231.88 368.12,-283.55 -400.74,-9.74 -761.16,-172.03 -1175.05,-358.4 -417.83,-188.21 -891.39,-401.46 -1520.49,-510.71 -1323.32,-229.73 -2544.95,159.49 -2714.69,240.72 l -4.69,2.21 -5.06,-1.13 c -123.81,-28.14 -559.29,-105.55 -965,80.1 -347.14,158.89 -500.56,454.8 -585.77,663.57 l -1.97,4.78 -4.52,2.57 c -28.43,16 -58.02,32.49 -88.63,49.57 -506.11,281.88 -1270.97,707.89 -1786.65,1816.24 -231.27,497.1 -325.13,880.6 -400.549,1188.8 -120.839,493.8 -201.497,823.3 -711.779,1198.1 90.117,2 271.921,-28.5 346.3,-73.8 l 125.133,-76.1 -107.19,99.8 c -5.789,5.4 -11.529,10.7 -17.227,15.9 -24.985,12.6 -50.887,22.7 -76.826,29.2 25.939,-6.5 51.841,-16.6 76.826,-29.2 -165.525,151.7 -294.288,233.1 -463.952,327.5 228.743,-24.3 414.759,-13.7 580.538,32.5 190.05,53 360.936,154.4 537.786,319 47.4,44.2 136.42,143.8 259.62,281.7 501.93,561.7 1546.35,1730.7 2407.92,2084.9 973.32,400.1 2290.62,358.3 3523.68,-111.9 883.21,-336.8 1582.85,-740.3 2126.6,-1614.5 713.24,-1146.8 666.94,-2720.1 639.34,-3660.1 -7.9,-267.8 -14.2,-479.3 -2.4,-625.98 42.2,-527.26 307.7,-984.99 625.4,-1089.34 -215.5,-92.05 -729.6,-58.12 -966.72,18.1 l -32.74,10.51 3.05,-6.45 c 21.27,-11.23 40.44,-28.49 60.15,-44.2 275.06,-75.15 794.46,-99.46 984.96,13.08 l 31.9,18.81 -36.1,8.55" /></g><g
         transform="scale(1.48269)"
         id="g276"><path
           id="path278"
           style="fill:#ad9884;fill-opacity:1;fill-rule:nonzero;stroke:none"
           d="m 4452.06,12766.8 c 0,0 697.69,532.8 837.98,1718 104.75,884.9 -332.6,1705.2 -1279.97,1753.6 -1205.59,61.6 -1863.53,-1154.2 -1863.53,-1154.2 0,0 -146.03,-802.8 458.66,-1553.4 728.5,-904.2 1846.86,-764 1846.86,-764" /></g><g
         transform="scale(1.4646)"
         id="g280"><path
           id="path282"
           style="fill:#000000;fill-opacity:1;fill-rule:nonzero;stroke:none"
           d="m 4502.93,12920.4 c 0,0 598.86,463.4 732.98,1599.9 100.13,848.7 -416.5,1674.2 -1322.17,1720.6 -1152.54,59.1 -1742.65,-973.3 -1742.65,-973.3 0,0 -138.56,-891.2 439.53,-1611 696.43,-867.1 1892.31,-736.2 1892.31,-736.2" /></g><g
         transform="scale(1.4553)"
         id="g284"><path
           id="path286"
           style="fill:#fefefe;fill-opacity:1;fill-rule:nonzero;stroke:none"
           d="m 5176.57,14632.6 c -28.72,-397.5 -130,-726 -244.55,-980.5 -12.03,-26.8 -24.26,-52.8 -36.56,-78 -11.95,-24.4 -23.91,-48.1 -35.93,-70.9 -166.98,-317.8 -335.74,-483.9 -335.74,-483.9 0,0 -133.17,-16.5 -336.63,-6 -13.61,0.7 -27.55,1.5 -41.78,2.5 -13.95,0.9 -28.17,2 -42.67,3.1 -412.01,34.2 -1039.44,182.1 -1475.43,725 -80.81,100.6 -147.32,204.3 -202.02,308.5 -9.62,18.1 -18.76,36.2 -27.55,54.3 -8.66,17.8 -16.98,35.7 -24.95,53.5 -274.44,609.6 -171.51,1198.4 -171.51,1198.4 0,0 623.03,941.4 1683.5,890.7 81.77,-3.9 159.83,-14.6 234.17,-31.4 39.24,-8.9 77.38,-19.4 114.48,-31.6 39.65,-12.9 78.06,-27.7 115.31,-44.3 582.28,-257.5 870.05,-926.2 827.86,-1509.4" /></g><g
         transform="scale(1.42586)"
         id="g288"><path
           id="path290"
           style="fill:#d8d8d8;fill-opacity:1;fill-rule:nonzero;stroke:none"
           d="m 2912.81,16300 c -429.76,-267.1 -666.08,-624.2 -666.08,-624.2 0,0 -158.97,-908.8 434.82,-1648.1 715.36,-890.7 1935.68,-739.6 1935.68,-739.6 0,0 110.13,108.5 241.38,317.7 -853.88,-26.9 -1410.85,225.5 -1812.36,694.9 -442.01,516.6 -448.86,1412.5 -133.44,1999.3" /></g><g
         transform="scale(1.45005)"
         id="g292"><path
           id="path294"
           style="fill:#1d5f75;fill-opacity:1;fill-rule:nonzero;stroke:none"
           d="m 5195.32,14685.6 c -13.93,-193.1 -44.96,-370 -86.34,-530.2 -53.03,-205.4 -123.1,-383.3 -195.78,-532.2 -206.13,-263.7 -469.92,-456.6 -752.81,-560.3 -133.51,9 -292.95,29.7 -462.95,72.7 -350.6,88.8 -745.97,272.9 -1050.85,645.8 -3.24,4.1 -6.49,8.2 -9.8,12.2 -95.16,118.5 -170.68,241.5 -230.4,364.2 -51.59,331.4 -8.07,696 145.51,1043.9 171.37,388.3 450.06,688.5 771.01,869.1 290.13,163.5 614.73,229.2 925.83,174.2 661.83,-216.8 991.62,-936.6 946.58,-1559.4" /></g><g
         transform="scale(1.25927)"
         id="g296"><path
           id="path298"
           style="fill:#449eb7;fill-opacity:1;fill-rule:nonzero;stroke:none"
           d="m 5883,16300 c -61.06,-236.6 -141.75,-441.4 -225.44,-612.8 -237.36,-303.7 -541.11,-525.9 -866.86,-645.2 -153.73,10.3 -337.33,34.1 -533.08,83.7 499.65,79.5 1137.96,358.1 1625.38,1174.3" /></g><g
         transform="scale(1.42967)"
         id="g300"><path
           id="path302"
           style="fill:#449eb7;fill-opacity:1;fill-rule:nonzero;stroke:none"
           d="m 2684.33,13977.9 c -3.29,4.2 -6.58,8.3 -9.94,12.4 -96.52,120.2 -173.11,244.9 -233.69,369.4 -52.32,336.1 -8.18,705.9 147.59,1058.8 173.82,393.8 456.47,698.2 782,881.5 -647.72,-781.9 -870.34,-1266.7 -685.96,-2322.1" /></g><g
         transform="scale(1.44942)"
         id="g304"><path
           id="path306"
           style="fill:#144a59;fill-opacity:1;fill-rule:nonzero;stroke:none"
           d="m 4250.59,16252 c -37.26,12.3 -75.55,22.8 -114.95,31.7 -201.04,16.3 -409.26,-14.5 -611.2,-92.3 -426.11,-164.2 -785.91,-520 -987.23,-976.1 -142.81,-323.5 -195.39,-669.2 -154.82,-997.6 8.01,-17.9 16.35,-35.8 25.05,-53.7 8.83,-18.2 18.01,-36.4 27.66,-54.6 -66.02,343.5 -27.32,727.3 133.64,1091.9 197.67,447.9 550.5,797 968.11,957.9 162.97,62.8 330.07,94.2 493.92,94.2 114.33,0 226.99,-15.2 335.59,-45.9 -37.4,16.7 -75.96,31.5 -115.77,44.5 z m -71.2,-3158.6 c -19.94,-7.7 -39.95,-14.9 -60.03,-21.6 14.56,-1.2 28.84,-2.2 42.85,-3.2 14.28,-1 28.28,-1.8 41.95,-2.5 256.17,101.2 487.98,271.8 675.09,491.9 12.08,22.9 24.08,46.7 36.09,71.2 12.34,25.3 24.63,51.4 36.7,78.3 -200.29,-281.1 -469.36,-497.2 -772.65,-614.1" /></g><g
         transform="scale(1.42514)"
         id="g308"><path
           id="path310"
           style="fill:#144a59;fill-opacity:1;fill-rule:nonzero;stroke:none"
           d="m 4944.1,14400 c -298.86,-677 -977.17,-1031.2 -1515.06,-791.3 -537.88,239.9 -731.64,983.2 -432.78,1660.1 298.86,676.9 977.18,1031.2 1515.06,791.3 537.88,-240 731.65,-983.2 432.78,-1660.1" /></g><g
         transform="scale(1.41089)"
         id="g312"><path
           id="path314"
           style="fill:#000000;fill-opacity:1;fill-rule:nonzero;stroke:none"
           d="m 4846.09,14593.7 c -274.86,-622.4 -872.26,-959.8 -1334.32,-753.6 -462.06,206.2 -613.82,877.8 -338.97,1500.2 274.86,622.3 872.25,959.7 1334.32,753.5 462.06,-206.2 613.82,-877.8 338.97,-1500.1" /></g><g
         transform="scale(1.45336)"
         id="g316"><path
           id="path318"
           style="fill:#6b5f55;fill-opacity:1;fill-rule:nonzero;stroke:none"
           d="m 2220.58,15372.7 c -4.68,-29.7 -35.37,-242.6 -4.3,-529.3 30.72,-283.5 129.91,-699.3 427.94,-1070.4 358.97,-446.9 851.44,-618.7 1201.37,-684.1 350.86,-65.5 632.61,-40.4 676.3,-35.8 24.53,25.4 155.33,165.5 292.13,408.4 139.31,247.4 313.52,655 352.34,1191.9 30.98,428.4 -113.42,867.9 -386.26,1175.6 -231.64,261.2 -539.73,408.1 -890.95,424.9 -542.77,25.9 -967.75,-215.4 -1228.7,-422.5 -266.19,-211.2 -420.67,-430.7 -439.87,-458.7 z m 2106.51,-2362.6 c -124.19,0 -295.34,9.1 -486.72,44.8 -226.37,42.2 -436.53,112.9 -624.65,210 -235.42,121.7 -436.73,285.4 -598.32,486.6 -303.53,377.9 -404.34,801 -435.45,1089.4 -33.7,312.4 4.92,539 5.32,541.3 l 0.62,3.5 1.98,3 c 1.57,2.4 160.79,240.6 448.3,469 168.97,134.2 348.68,239 534.14,311.5 232.1,90.7 473.87,130.8 718.47,119.1 360.71,-17.2 677.13,-168.2 915.06,-436.5 139.14,-156.9 248.82,-352.9 317.2,-566.9 65.87,-206.1 92.72,-425.3 77.64,-633.9 -39.33,-544 -216.06,-957 -357.39,-1207.6 -153.39,-272 -295.39,-413.1 -301.37,-418.9 l -4.15,-4.2 -5.79,-0.7 c -1.53,-0.2 -79.12,-9.5 -204.89,-9.5" /></g><g
         transform="scale(1.47872)"
         id="g320"><path
           id="path322"
           style="fill:#6b5f55;fill-opacity:1;fill-rule:nonzero;stroke:none"
           d="m 5052.25,15648.1 c -1.46,3.2 -150.1,314.9 -439.12,472.5 -289.29,157.8 -589.29,133.5 -592.28,133.3 0,0 148.47,46.1 333.31,1.5 85.75,-20.7 180.54,-53.5 275.17,-105.1 115.75,-63.1 208.93,-148.5 280.02,-230.2 112.54,-129.4 142.9,-272 142.9,-272" /></g><g
         transform="scale(1.51083)"
         id="g324"><path
           id="path326"
           style="fill:#000000;fill-opacity:1;fill-rule:nonzero;stroke:none"
           d="m 3812.16,15630.3 c -87.1,13.4 -170.28,30.1 -258.81,19.5 -129.89,58.1 -208.5,185.8 -251.52,257.5 -119.14,238.8 21.13,392.7 21.13,392.7 -28.39,-80.8 -21.33,-230.5 61.27,-368.1 61.05,-101.7 185.71,-231 432.94,-268.8 l -5.01,-32.8" /></g><g
         transform="scale(1.50206)"
         id="g328"><path
           id="path330"
           style="fill:#000000;fill-opacity:1;fill-rule:nonzero;stroke:none"
           d="m 3346.64,15700.4 c -67.91,0 -170.55,-60.6 -230.24,-51.4 -170.82,26.3 -289.25,135.6 -366.73,200.2 -217.47,219.7 -147.63,450.8 -147.63,450.8 11.26,-135.1 93.98,-279.1 221.29,-385.4 104.99,-87.6 287.29,-190 559.51,-180.2 l 1.2,-33.3 c -12.65,-0.4 -25.12,-0.7 -37.4,-0.7" /></g><g
         transform="scale(1.45512)"
         id="g332"><path
           id="path334"
           style="fill:#000000;fill-opacity:1;fill-rule:nonzero;stroke:none"
           d="m 2883.03,15989.3 c -420.35,-49.2 -529.16,214.2 -510.09,310.7 100.66,-220.9 362.83,-282.7 738.22,-174.1 l 9.55,-33 c -123.07,-35.6 -147.19,-60 -237.68,-103.6" /></g><g
         transform="scale(1.04988)"
         id="g336"><path
           id="path338"
           style="fill:#720000;fill-opacity:1;fill-rule:nonzero;stroke:none"
           d="m 5727.82,15689 c 0,0 0,-1635.2 663.57,-1927.2 595.1,-262 1498.59,297.3 1727.19,945.5 -180.97,838.8 -1012.34,1592.7 -1012.34,1592.7 l -1378.42,-611" /></g><g
         transform="scale(1.00069)"
         id="g340"><path
           id="path342"
           style="fill:#490000;fill-opacity:1;fill-rule:nonzero;stroke:none"
           d="m 7367.21,16167.5 c -627.79,132.5 -1144.81,-564 -1170.37,-1011.9 102.84,-323.4 262.08,-608.8 508.72,-717.3 301.07,-132.6 677.34,-64.8 1013.19,117.3 596.22,548.7 253.04,1484.2 -351.54,1611.9" /></g><path
         id="path344"
         style="fill:#f59191;fill-opacity:1;fill-rule:nonzero;stroke:none"
         d="m 7182.2,15179.9 c -369.81,150 -752.82,104.6 -955.52,-90.2 103.17,-291.5 256.27,-541.5 483.49,-641.5 317.89,-140 719.56,-56.6 1069.11,148.6 -72.41,233.2 -291.52,459.2 -597.08,583.1" /><path
         id="path346"
         style="fill:#f0807f;fill-opacity:1;fill-rule:nonzero;stroke:none"
         d="m 6254.88,15114.7 c -9.7,-8 -19.19,-16.3 -28.2,-25 103.17,-291.5 256.27,-541.5 483.49,-641.5 317.89,-140 719.56,-56.6 1069.11,148.6 -23.31,75.1 -61.92,149.4 -113.63,219.8 -396.68,-265.1 -1034.38,-355.5 -1410.77,298.1" /><path
         id="path348"
         style="fill:#c15252;fill-opacity:1;fill-rule:nonzero;stroke:none"
         d="m 6255.77,15082.7 c 116.31,-321.4 272.53,-527.2 464.48,-611.7 284.45,-125.2 658.56,-75.1 1028.96,137.2 -78.41,226.4 -297.3,435.3 -576.41,548.6 v 0 c -346.68,140.6 -712.44,110.4 -917.03,-74.1 z m 804.01,-729.3 c -128.93,0 -250.37,23.8 -359.68,71.9 -208.12,91.6 -375.33,312.3 -496.99,656.1 l -5.37,15.2 11.62,11.2 c 216.1,207.6 610.83,246 982.24,95.3 v 0 c 300.37,-121.9 534.71,-351.3 611.56,-598.9 l 5.87,-18.9 -17.1,-10.1 c -249.73,-146.6 -502.74,-221.7 -732.15,-221.8" /><g
         transform="scale(1.05169)"
         id="g350"><path
           id="path352"
           style="fill:#727272;fill-opacity:1;fill-rule:nonzero;stroke:none"
           d="m 5741.89,15646.6 c 2.41,-166.4 41.24,-1619.6 648.08,-1886.8 225.01,-99 513.53,-82.3 812.39,47.1 405.14,175.4 748.83,518.9 877.57,876.6 -168.35,765.1 -891.33,1466.9 -990.63,1560.4 z m 969.52,-1998.1 c -122.7,0 -237.73,22.6 -340.6,67.8 -282.35,124.3 -482.01,490.6 -593.42,1088.7 -82.24,441.6 -83.19,852.9 -83.19,857 v 15.5 l 1404.32,622.5 11.45,-10.5 c 2.1,-1.8 211.63,-192.8 440.28,-483.8 211.46,-269.1 483.31,-681.7 577.59,-1118.6 l 1.41,-6.7 -2.22,-6.3 c -131.14,-371.8 -486.68,-729.4 -905.78,-910.9 -176.24,-76.2 -349.57,-114.7 -509.84,-114.7" /></g><path
         id="path354"
         style="fill:#727272;fill-opacity:1;fill-rule:nonzero;stroke:none"
         d="m 5426.99,14402 c -1.3,3.7 -131.18,372.4 -204.2,480.5 0,0 113.22,-109.8 199.89,-323.8 28.84,-75.8 49.39,-134.2 51.49,-140.1 l -47.18,-16.6" /><path
         id="path356"
         style="fill:#727272;fill-opacity:1;fill-rule:nonzero;stroke:none"
         d="m 8070.19,13151.2 -10.41,48.9 c 60.63,13 122.49,26.8 182.31,40.2 378.92,87 528.69,31.9 528.69,31.9 -73.76,18.5 -299.5,-32 -517.79,-80.7 -59.94,-13.4 -121.92,-27.3 -182.8,-40.3" /><g
         transform="scale(1.78414)"
         id="g358"><path
           id="path360"
           style="fill:#c5af97;fill-opacity:1;fill-rule:nonzero;stroke:none"
           d="m 7948.76,14375.9 c -236.64,136.8 -828.53,455.6 -1030.3,747.1 -201.78,291.4 -173.76,627.7 -156.94,745.4 -252.22,-173.7 -358.72,-478 -308.27,-746.2 -229.81,90.4 -638.97,673.4 -599.73,1177.8 -184.96,-257.8 -280.24,-1216.3 184.96,-1502.1 -257.83,67.2 -616.54,306.6 -706.21,540 22.42,-427.9 213.3,-723.5 465.54,-841.2 l 2150.95,-120.8" /></g><g
         transform="scale(1.78414)"
         id="g362"><path
           id="path364"
           style="fill:#dccfc1;fill-opacity:1;fill-rule:nonzero;stroke:none"
           d="m 5440.62,15057.6 c 151.34,-157 319.46,-293.4 801.49,-345.7 -465.21,285.9 -482.03,876.3 -434.94,1198.5 91.19,-348.4 304.18,-763.1 774.99,-978 -65.41,243.2 -104.19,546.5 99.04,760.4 -27.58,-110 -46.52,-394.2 192.42,-684.7 365.89,-445 838.5,-495.4 1075.14,-632.2 -236.64,136.8 -828.53,455.6 -1030.3,747.1 -201.78,291.4 -173.76,627.7 -156.94,745.4 -252.22,-173.7 -358.72,-478 -308.27,-746.2 -229.81,90.4 -638.97,673.4 -599.73,1177.8 -184.96,-257.8 -280.24,-1216.3 184.96,-1502.1 -257.83,67.2 -616.54,306.6 -706.21,540 22.42,-427.9 213.3,-723.5 465.54,-841.2 -190.91,127.4 -282.45,318 -357.19,560.9" /></g><g
         transform="scale(1.7895)"
         id="g366"><path
           id="path368"
           style="fill:#6b5f55;fill-opacity:1;fill-rule:nonzero;stroke:none"
           d="m 7917.98,14320.8 c -22.47,12.9 -48.06,27.5 -76.28,43.6 -269.68,153.7 -771.61,439.8 -955.41,705.3 -184.63,266.7 -179.49,573.4 -162.95,721 -215.42,-163.5 -325.73,-445.1 -275.66,-711.2 l 4.64,-24.9 -23.53,9.3 c -121.82,48 -281.42,220.1 -406.54,438.4 -79.97,139.6 -207.71,408.6 -202.74,695.4 -100.86,-189.2 -161.1,-588.5 -92.42,-929.6 47.83,-237.3 151.77,-411.1 300.64,-502.6 l 79.91,-49.1 -90.75,23.7 c -239.74,62.5 -556.22,266.7 -681.17,480.2 36.46,-368.8 199.81,-652.7 444.73,-767 0,0 -143.28,16.2 -270.98,193.2 -22.3,30.2 -43.08,62.6 -62.19,97.1 -83.97,151.4 -134.09,340.8 -144.93,547.7 l -4.61,88 31.6,-82.3 c 40.31,-104.9 141.31,-220.3 284.42,-325 103.66,-75.9 222.13,-140 330.15,-179.6 -118.75,102.6 -202.52,263.2 -244.21,470.2 -76.22,378.5 4.64,829.1 124.95,996.8 l 29.17,40.6 -3.91,-49.9 c -23.24,-299.4 113.16,-588.3 196.59,-733.9 112.33,-196 257.34,-358.4 369.27,-415.7 -19.5,129.5 -3.86,263.4 45.71,388.9 55.21,139.9 149.26,258.6 271.86,343 l 26.27,18.1 -4.47,-31.6 c -18.22,-127.2 -39.57,-453.5 154.12,-733.3 180.22,-260.3 678.52,-544.3 946.24,-696.9 28.28,-16.1 53.99,-30.7 76.45,-43.7 l -13.97,-24.2" /></g><g
         transform="scale(1.45976)"
         id="g370"><path
           id="path372"
           style="fill:#ad9884;fill-opacity:1;fill-rule:nonzero;stroke:none"
           d="m 8633.94,15681.7 c 102.76,328.8 364.85,618.3 808.35,500 565.21,-150.7 678.21,-739.8 678.21,-1150.8 -87.6,270 -438.58,697.5 -808.37,794.6 -324.3,85.2 -678.19,-143.8 -678.19,-143.8" /></g><g
         transform="scale(1.47003)"
         id="g374"><path
           id="path376"
           style="fill:#998370;fill-opacity:1;fill-rule:nonzero;stroke:none"
           d="m 8573.63,15572.1 c 485.23,727.9 1418.34,197.3 1476.17,-646.2 -87.01,268.2 -435.51,692.6 -802.71,789.1 -322.03,84.6 -673.46,-142.9 -673.46,-142.9" /></g><g
         transform="scale(1.45961)"
         id="g378"><path
           id="path380"
           style="fill:#6b5f55;fill-opacity:1;fill-rule:nonzero;stroke:none"
           d="m 9158.41,15863.5 c 52.62,0 106.13,-5.9 159.09,-19.8 339.4,-89.1 659.35,-449.6 784.9,-717.5 -15.7,363.5 -132.4,899.1 -663.5,1040.7 -499.25,133.1 -705.81,-262.4 -772.95,-445.3 82.69,46.2 279.87,141.9 492.46,141.9 z m 980.29,-939.4 -33.5,103.1 c -85,262.1 -429.12,686.9 -796.41,783.4 -313.09,82.2 -661.13,-139.4 -664.63,-141.7 l -39.8,-25.7 14.11,45.2 c 40.42,129.2 122.23,308.1 282.61,426.4 152.58,112.6 336.53,141.2 546.59,85.2 601.23,-160.3 691.03,-800.3 691.03,-1167.6 v -108.3" /></g><g
         transform="scale(1.6132)"
         id="g382"><path
           id="path384"
           style="fill:#ad9884;fill-opacity:1;fill-rule:nonzero;stroke:none"
           d="m 5072.43,15382.1 c 75.83,302.4 10.08,649.6 -388.13,767.6 -507.49,150.3 -872.77,-251.2 -1066.73,-568.6 195.08,167.2 667.77,331.6 999.11,232.1 290.61,-87.3 455.75,-431.1 455.75,-431.1" /></g><g
         transform="scale(1.6188)"
         id="g386"><path
           id="path388"
           style="fill:#998370;fill-opacity:1;fill-rule:nonzero;stroke:none"
           d="m 5054.87,15328.8 c 27.43,588.2 -735.43,971.2 -1449.83,198.4 194.4,166.6 665.45,330.4 995.66,231.2 289.59,-86.9 454.17,-429.6 454.17,-429.6" /></g><g
         transform="scale(1.61562)"
         id="g390"><path
           id="path392"
           style="fill:#6b5f55;fill-opacity:1;fill-rule:nonzero;stroke:none"
           d="m 4386.88,15835 c 79.35,0 156.41,-9.3 227.35,-30.6 238.94,-71.8 392.31,-308.2 444.68,-401.1 34.4,172.6 61.51,574.8 -386.02,707.3 -476.17,141.1 -818.48,-216.8 -1001.82,-489.6 170.91,113 455.52,214 715.81,214 z m 682.56,-521.2 -18.55,38.6 c -1.62,3.3 -165.47,338.2 -445.56,422.3 -328.61,98.7 -794.08,-66.7 -983.11,-228.7 l -74.31,-63.6 51.04,83.5 c 173.02,283 543.73,734.1 1082.73,574.4 188.36,-55.8 316.62,-164.5 381.21,-323.1 67.92,-166.8 46.71,-343.3 16.96,-461.9 l -10.41,-41.5" /></g><g
         transform="scale(1.35485)"
         id="g394"><path
           id="path396"
           style="fill:#ad9884;fill-opacity:1;fill-rule:nonzero;stroke:none"
           d="m 7106.71,13420.2 c 0,0 70.1,1370.9 992.71,2223.5 710.26,656.3 1882.12,554.5 2413.58,-156 531.4,-710.4 409.2,-2074.3 409.2,-2074.3 0,0 -505.2,-970.9 -1553.27,-1062.9 -1527.25,-134 -2262.22,1069.7 -2262.22,1069.7" /></g><g
         transform="scale(1.32791)"
         id="g398"><path
           id="path400"
           style="fill:#000000;fill-opacity:1;fill-rule:nonzero;stroke:none"
           d="m 7250.9,13602.3 c 0,0 71.53,1284.3 1012.85,2082.9 724.67,614.8 1900.25,484.5 2442.45,-181 542.2,-665.5 437.6,-1908.4 437.6,-1908.4 0,0 -515.4,-909.5 -1584.78,-995.5 -1558.24,-125.6 -2308.12,1002 -2308.12,1002" /></g><g
         transform="scale(1.30371)"
         id="g402"><path
           id="path404"
           style="fill:#fefefe;fill-opacity:1;fill-rule:nonzero;stroke:none"
           d="m 11331.9,13854 c 0,0 -93,-172 -285.2,-375 -2.3,-2.6 -4.8,-5.2 -7.2,-7.8 -13.2,-13.8 -26.7,-27.7 -40.8,-41.7 -16.5,-16.3 -33.5,-32.8 -51.1,-49.3 -4.1,-3.9 -8.2,-7.7 -12.5,-11.5 -3.8,-3.6 -7.7,-7.2 -11.6,-10.8 -23,-20.8 -47,-41.8 -72,-62.6 -4.5,-3.9 -9.1,-7.7 -13.8,-11.5 -4.6,-3.8 -9.3,-7.6 -14,-11.4 -19.3,-15.6 -39.1,-31 -59.5,-46.3 -4.5,-3.4 -9,-6.8 -13.6,-10.2 -3.5,-2.6 -7,-5.2 -10.5,-7.7 -3.9,-2.8 -7.8,-5.7 -11.8,-8.5 -52.9,-38.1 -109.5,-75 -169.7,-109.9 -4.1,-2.4 -8.1,-4.8 -12.2,-7.1 -31.4,-17.9 -63.9,-35.3 -97.3,-52 -6.3,-3.1 -12.7,-6.3 -19.1,-9.4 -5.2,-2.5 -10.4,-5 -15.7,-7.5 -13.9,-6.6 -28.1,-13.2 -42.5,-19.5 -5.8,-2.6 -11.6,-5.2 -17.5,-7.8 -29.9,-12.9 -60.3,-25.3 -91.6,-36.9 -5.2,-2 -10.5,-4 -15.9,-5.9 -41,-14.9 -83.3,-28.7 -126.8,-41.2 -5.1,-1.4 -10.3,-2.9 -15.5,-4.3 -25.2,-7.1 -50.9,-13.6 -77,-19.7 -7.7,-1.7 -15.3,-3.5 -23.1,-5.2 -23.16,-5.1 -46.63,-9.8 -70.49,-14.1 -15.56,-2.8 -31.29,-5.5 -47.17,-8 -8.13,-1.2 -16.33,-2.4 -24.54,-3.6 -7.37,-1.1 -14.73,-2.1 -22.17,-3 -33.9,-4.5 -68.42,-8.1 -103.55,-10.8 -50.63,-3.9 -100.41,-6.5 -149.27,-8 -37.89,-1 -75.32,-1.4 -112.22,-1.1 -16.18,0.1 -32.21,0.4 -48.24,0.8 -2.38,0 -4.84,0.1 -7.29,0.2 -14.65,0.4 -29.22,0.8 -43.65,1.5 -8.13,0.4 -16.26,0.8 -24.39,1.2 -8.05,0.4 -16.11,0.9 -24.16,1.3 -24.16,1.4 -48.09,3.1 -71.79,5.3 -6.6,0.5 -13.27,1.1 -19.87,1.7 -3.3,0.3 -6.52,0.6 -9.82,0.9 -13.65,1.3 -27.23,2.7 -40.65,4.3 -7.75,0.8 -15.42,1.7 -23.09,2.6 -7.75,1 -15.34,1.9 -23.01,2.9 -15.27,1.9 -30.45,4 -45.49,6.2 -4.45,0.7 -8.82,1.3 -13.19,2 -5.68,0.8 -11.35,1.7 -16.95,2.6 -29,4.5 -57.61,9.5 -85.83,15 -4.07,0.7 -8.14,1.5 -12.12,2.3 -15.96,3.1 -31.84,6.4 -47.56,9.8 -5.91,1.2 -11.82,2.5 -17.72,3.9 -4.37,0.9 -8.74,1.9 -13.12,2.9 -8.28,1.8 -16.56,3.8 -24.77,5.8 -2.61,0.6 -5.14,1.2 -7.75,1.8 -7.59,1.8 -15.18,3.7 -22.7,5.6 -20.02,5 -39.89,10.2 -59.53,15.6 -7.13,2 -14.26,4 -21.4,6.1 -6.21,1.8 -12.35,3.5 -18.4,5.4 -2.31,0.6 -4.61,1.3 -6.91,2 -6.98,2 -13.96,4.1 -20.86,6.3 -4.91,1.4 -9.75,2.9 -14.58,4.5 -3.14,1 -6.29,2 -9.43,3 -864.15,273.4 -1276.06,905.8 -1276.06,905.8 0,0 53.69,1219.6 1012.5,2002 184.63,150.6 397.33,255.2 621.16,317.1 30.22,8.3 60.59,15.9 91.2,22.7 34.67,7.8 69.49,14.5 104.54,20.3 0,0 0.08,0.1 0.16,0 511.23,83.9 1053.58,-40.1 1438.08,-333.8 49.5,-37.8 96.4,-78.4 140.3,-121.8 28.7,-28.3 56.1,-58 82.1,-88.6 32.2,-38.1 62.2,-77.9 89.9,-119.1 449.3,-665 347.3,-1698.8 347.3,-1698.8" /></g><g
         transform="scale(1.20188)"
         id="g406"><path
           id="path408"
           style="fill:#d8d8d8;fill-opacity:1;fill-rule:nonzero;stroke:none"
           d="m 12292,15027.7 c 0,0 -100.9,-186.6 -309.4,-407 -16.7,-17.6 -34,-35.4 -52.1,-53.4 -17.8,-17.7 -36.3,-35.6 -55.4,-53.5 -284.9,-266.8 -719.2,-546.7 -1313.7,-592.7 -396.7,-30.7 -744.92,11.5 -1045.87,94.6 -17.06,4.7 -33.95,9.5 -50.67,14.5 -16.39,4.8 -32.61,9.8 -48.67,15 -937.37,296.6 -1384.18,982.5 -1384.18,982.5 0,0 11.98,272.5 122.31,649.4 19.14,-334.8 324.58,-675.7 766.89,-916.7 9.9,-5.4 19.8,-10.7 29.87,-16.1 9.99,-5.2 19.97,-10.4 30.12,-15.5 466.6,-238.3 1070.5,-365.9 1649.5,-267.8 801.7,135.8 1458.2,765.8 1536.8,1589.6 2.8,28.7 4.9,57.8 6.1,87 1.4,30.8 2,61.9 1.8,93.3 -0.2,22.8 -0.8,45.9 -1.9,69.1 182.2,-626.6 118.5,-1272.3 118.5,-1272.3" /></g><g
         transform="scale(1.30576)"
         id="g410"><path
           id="path412"
           style="fill:#1d5f75;fill-opacity:1;fill-rule:nonzero;stroke:none"
           d="m 11242.6,14354.4 c -13.7,-349.3 -108.2,-672.6 -261.3,-946 v 0 c -16.4,-16.4 -33.4,-32.8 -51,-49.3 -4,-3.8 -8.2,-7.7 -12.4,-11.5 -3.8,-3.6 -7.7,-7.1 -11.6,-10.7 -23,-20.8 -46.9,-41.7 -71.9,-62.6 -4.5,-3.8 -9.1,-7.6 -13.7,-11.4 -4.6,-3.8 -9.3,-7.6 -14.1,-11.4 -19.2,-15.5 -38.9,-30.9 -59.3,-46.2 -4.5,-3.4 -9,-6.8 -13.6,-10.2 -3.5,-2.6 -7,-5.2 -10.5,-7.7 -3.9,-2.8 -7.8,-5.7 -11.7,-8.5 -52.9,-38 -109.4,-74.9 -169.5,-109.7 -4.1,-2.4 -8.1,-4.8 -12.2,-7.1 -31.4,-17.9 -63.8,-35.3 -97.2,-51.9 -6.3,-3.1 -12.6,-6.3 -19,-9.4 -5.2,-2.5 -10.4,-5 -15.7,-7.5 -13.9,-6.6 -28.1,-13.1 -42.4,-19.5 -5.8,-2.6 -11.6,-5.2 -17.5,-7.7 -29.8,-13 -60.2,-25.3 -91.4,-36.9 -5.3,-2 -10.6,-3.9 -15.9,-5.9 -41,-14.9 -83.2,-28.7 -126.6,-41.1 -5.2,-1.4 -10.3,-2.9 -15.5,-4.3 -25.2,-7.1 -50.9,-13.6 -76.9,-19.6 -7.6,-1.8 -15.3,-3.6 -23.04,-5.3 -23.13,-5.1 -46.56,-9.8 -70.38,-14 -15.55,-2.9 -31.25,-5.5 -47.1,-8 -8.12,-1.2 -16.31,-2.5 -24.51,-3.6 -5.82,-0.9 -11.56,-1.6 -17.46,-2.4 -1.53,-0.2 -3.14,-0.4 -4.67,-0.6 -33.85,-4.5 -68.31,-8.1 -103.39,-10.8 -50.54,-3.9 -100.24,-6.5 -149.03,-8 -37.83,-1 -75.21,-1.4 -112.04,-1.1 -16.16,0.1 -32.17,0.4 -48.17,0.8 -2.38,0 -4.83,0.1 -7.28,0.2 -14.55,0.4 -29.1,0.9 -43.57,1.5 -8.12,0.4 -16.24,0.8 -24.36,1.2 -8.04,0.4 -16.08,0.9 -24.12,1.3 -24.13,1.5 -48.02,3.2 -71.68,5.3 -6.59,0.5 -13.25,1.1 -19.84,1.7 -3.29,0.3 -6.51,0.6 -9.8,0.9 -13.63,1.3 -27.11,2.7 -40.59,4.2 -7.74,0.9 -15.39,1.8 -23.05,2.7 -7.74,0.9 -15.32,1.9 -22.98,2.9 -15.24,1.9 -30.4,4 -45.41,6.2 -4.44,0.6 -8.81,1.3 -13.17,2 -5.67,0.8 -11.34,1.6 -16.93,2.6 -28.95,4.5 -57.52,9.5 -85.7,14.9 -4.06,0.8 -8.11,1.5 -12.1,2.3 -15.93,3.1 -31.78,6.4 -47.48,9.8 -5.89,1.2 -11.79,2.5 -17.69,3.9 -4.37,0.9 -8.73,1.9 -13.09,2.9 -8.28,1.8 -16.55,3.8 -24.74,5.7 -2.6,0.7 -5.13,1.3 -7.74,1.9 -7.58,1.8 -15.16,3.7 -22.66,5.6 -19.99,5 -39.83,10.2 -59.43,15.6 -7.13,2 -14.25,4 -21.37,6.1 -6.21,1.7 -12.33,3.5 -18.38,5.3 -2.3,0.6 -4.6,1.3 -6.89,2 -198.82,171.7 -361.33,397.1 -472.91,657.3 -117.94,275 -178.98,588.9 -165.95,919.7 8.5,217.1 48.24,424.1 113.8,615.2 168.56,492 508.21,879.4 928.34,1064.1 582.42,129.7 1223.46,-19.9 1633.76,-390.6 15.9,-14.3 31.5,-29 46.6,-44 200.2,-240.1 344.3,-543.9 409.6,-882 31,-159.7 44.2,-327.2 37.5,-499.3" /></g><g
         transform="scale(1.26408)"
         id="g414"><path
           id="path416"
           style="fill:#449eb7;fill-opacity:1;fill-rule:nonzero;stroke:none"
           d="m 11613.3,14827.7 c -14.2,-360.8 -111.8,-694.8 -269.9,-977.2 v 0 c -16.9,-16.9 -34.5,-33.9 -52.7,-50.9 -4.1,-4 -8.4,-7.9 -12.8,-11.9 -3.9,-3.7 -8,-7.3 -12,-11 -23.7,-21.6 -48.4,-43.2 -74.2,-64.7 -4.7,-3.9 -9.4,-7.9 -14.2,-11.8 -4.8,-3.9 -9.6,-7.8 -14.5,-11.7 -19.9,-16.1 -40.3,-32 -61.3,-47.7 -4.7,-3.6 -9.4,-7.1 -14.1,-10.6 -3.6,-2.7 -7.2,-5.3 -10.8,-8 -4.1,-2.9 -8.1,-5.8 -12.1,-8.7 -54.6,-39.3 -113,-77.4 -175.1,-113.4 -4.2,-2.5 -8.4,-4.9 -12.6,-7.3 -32.4,-18.5 -65.9,-36.4 -100.4,-53.6 -6.5,-3.3 -13,-6.5 -19.6,-9.7 -5.4,-2.6 -10.8,-5.2 -16.2,-7.8 -14.4,-6.8 -29.1,-13.5 -43.8,-20.1 -6.1,-2.7 -12.1,-5.4 -18.2,-8 -30.7,-13.4 -62.1,-26.1 -94.3,-38 -5.5,-2.2 -11,-4.1 -16.5,-6.1 -42.3,-15.5 -85.9,-29.7 -130.8,-42.5 -5.3,-1.5 -10.6,-3 -15.9,-4.5 -26.1,-7.3 -52.6,-14 -79.5,-20.3 -7.9,-1.8 -15.8,-3.6 -23.8,-5.3 -23.9,-5.3 -48.1,-10.2 -72.7,-14.6 -16,-2.9 -32.3,-5.6 -48.6,-8.2 300.3,50.8 1101.5,381.2 1199.7,1302 81.5,764.7 -32.2,1298.6 -293.1,1743.9 16.5,-14.8 32.5,-30 48.2,-45.5 206.7,-247.9 355.6,-561.7 423.1,-911 31.9,-165 45.6,-338 38.7,-515.8" /></g><g
         transform="scale(1.21013)"
         id="g418"><path
           id="path420"
           style="fill:#449eb7;fill-opacity:1;fill-rule:nonzero;stroke:none"
           d="m 10606,13838.5 c -1.7,-0.2 -3.4,-0.4 -5.1,-0.6 -36.5,-4.9 -73.7,-8.8 -111.5,-11.7 -54.6,-4.2 -108.2,-7 -160.8,-8.6 -40.9,-1.1 -81.2,-1.6 -120.9,-1.2 -17.5,0.1 -34.7,0.5 -52,0.9 -2.6,0 -5.2,0.1 -7.9,0.2 -15.7,0.4 -31.4,0.9 -47,1.6 -8.7,0.4 -17.5,0.8 -26.3,1.2 -8.6,0.5 -17.3,1 -26,1.5 -26,1.6 -51.8,3.4 -77.33,5.7 -7.11,0.5 -14.3,1.2 -21.4,1.9 -3.56,0.3 -7.03,0.6 -10.58,0.9 -14.71,1.4 -29.25,2.9 -43.8,4.6 -8.34,0.9 -16.61,1.9 -24.87,2.9 -8.35,1 -16.53,2 -24.79,3 -16.45,2.2 -32.81,4.4 -49,6.7 -4.8,0.8 -9.51,1.4 -14.22,2.2 -6.11,0.9 -12.23,1.8 -18.26,2.8 -31.24,4.9 -62.06,10.2 -92.47,16.1 -4.38,0.8 -8.76,1.7 -13.06,2.5 -17.19,3.4 -34.29,6.9 -51.23,10.6 -6.36,1.3 -12.73,2.7 -19.09,4.2 -4.71,1 -9.42,2 -14.13,3.1 -8.92,2 -17.85,4.1 -26.69,6.2 -2.81,0.7 -5.54,1.3 -8.35,2 -8.18,2 -16.36,4 -24.46,6 -21.57,5.4 -42.97,11 -64.12,16.9 -7.69,2.1 -15.37,4.3 -23.06,6.5 -6.69,1.9 -13.3,3.8 -19.83,5.8 -2.48,0.7 -4.96,1.4 -7.44,2.1 -214.52,185.3 -389.87,428.5 -510.27,709.3 -127.26,296.7 -193.13,635.4 -179.08,992.4 9.18,234.2 52.06,457.5 122.8,663.8 -7.93,-477.5 62.64,-1446.5 484.49,-1875.9 454.17,-462.4 979.44,-621.8 1287.74,-585.6" /></g><g
         transform="scale(1.29699)"
         id="g422"><path
           id="path424"
           style="fill:#144a59;fill-opacity:1;fill-rule:nonzero;stroke:none"
           d="m 8759.49,15981.3 c 156.9,144.6 334.38,252.1 522.36,318.7 -35.24,-5.9 -70.24,-12.6 -105.09,-20.4 -30.76,-6.8 -61.3,-14.4 -91.67,-22.9 -124.75,-64.2 -243.03,-146.9 -351.66,-247 -375.41,-345.6 -603.24,-863.2 -625.14,-1420 -12.57,-320.7 42.63,-632.1 158.67,-911.8 67.01,-161.5 154.28,-312.5 260.6,-448.4 61.46,-78.6 127.69,-150.1 198.08,-214.3 3.16,-1 6.32,-2 9.48,-3 4.86,-1.6 9.72,-3.1 14.65,-4.6 6.94,-2.1 13.96,-4.2 20.97,-6.3 2.32,-0.7 4.63,-1.4 6.94,-2 6.09,-1.9 12.26,-3.6 18.51,-5.4 7.17,-2.1 14.34,-4.1 21.51,-6.1 -207.48,169.5 -377.8,396.6 -495.15,660.8 -124.21,279.6 -189.05,600.8 -175.71,939.6 21.43,546.6 244.8,1054.4 612.65,1393.1 z m 2523.01,-940.8 c -49.5,212 -130.7,412.2 -241,592.8 -27.9,41.4 -58,81.4 -90.4,119.7 -26.1,30.8 -53.7,60.6 -82.6,89 -44.1,43.7 -91.2,84.4 -141,122.5 281.3,-271.2 479.8,-655.3 547.7,-1091 21.2,-136.1 29.7,-277.1 24.1,-421.4 -14.3,-364.3 -118.3,-711.4 -295.1,-1002.7 17.8,16.6 34.9,33.2 51.4,49.6 14.2,14.1 27.8,28 41,41.9 2.5,2.6 4.8,5 7.2,7.6 0.1,0.1 0.1,0.1 0.1,0.2 139.6,270.3 221.3,579.6 233.9,901.9 8,202.2 -11.1,400.7 -55.3,589.9" /></g><g
         transform="scale(1.27245)"
         id="g426"><path
           id="path428"
           style="fill:#144a59;fill-opacity:1;fill-rule:nonzero;stroke:none"
           d="m 11131,14724.9 c -32.6,-826.7 -582.2,-1474.1 -1227.54,-1446.2 -645.37,27.9 -1142.12,720.6 -1109.51,1547.2 32.62,826.6 582.18,1474.1 1227.55,1446.2 645.4,-27.9 1142,-720.7 1109.5,-1547.2" /></g><g
         transform="scale(1.26053)"
         id="g430"><path
           id="path432"
           style="fill:#000000;fill-opacity:1;fill-rule:nonzero;stroke:none"
           d="m 11100.8,14853.4 c -30.1,-760.9 -513.1,-1357.8 -1078.9,-1333.3 -565.83,24.5 -1000.17,661.2 -970.1,1422.1 30.15,760.9 513.2,1357.8 1079,1333.3 565.8,-24.5 1000,-661.2 970,-1422.1" /></g><g
         transform="scale(1.31256)"
         id="g434"><path
           id="path436"
           style="fill:#6b5f55;fill-opacity:1;fill-rule:nonzero;stroke:none"
           d="m 7374.08,13765.8 c 26.93,-39.3 212.38,-299.2 559.78,-543.1 345.73,-242.8 927.5,-519.2 1735.46,-456.5 552.78,42.8 949.78,312.9 1185.58,532 239.2,222.5 365.4,438.8 382,468 3.1,35.7 25,311.4 -11.9,653 -36.3,335 -138.2,803.9 -418.4,1134.6 -557.8,658.5 -1740.76,746.2 -2434.21,180.4 -487.98,-398.3 -733.53,-913.5 -853.51,-1275.7 -120.03,-362.2 -141.99,-647.7 -144.8,-692.7 z M 9436.95,12719 c -277.7,0 -545.43,39.1 -798.75,116.8 -259.41,79.5 -504.2,199.5 -727.58,356.6 -380.58,267.7 -570.02,554.8 -571.89,557.7 l -3.33,5.1 0.26,6.1 c 0.14,3.1 14.97,310.1 146.65,708 121.58,367.3 370.49,890.1 866,1294.4 179.5,146.5 389.32,253.6 623.59,318.5 221.63,61.3 453.69,82 689.72,61.5 476.98,-41.5 904.98,-247.5 1174.08,-565.3 286.5,-338.2 390.5,-815.2 427.3,-1155.9 39.7,-368.2 11.7,-661 11.4,-663.9 l -0.4,-3.8 -1.8,-3.4 c -1.3,-2.4 -130.2,-237.9 -390.4,-480.1 -240.3,-223.6 -645.2,-499.4 -1209.59,-543.1 -79.08,-6.2 -157.55,-9.2 -235.26,-9.2" /></g><g
         transform="scale(1.34016)"
         id="g438"><path
           id="path440"
           style="fill:#6b5f55;fill-opacity:1;fill-rule:nonzero;stroke:none"
           d="m 10189.4,15969.1 c -2,2.1 -205.51,214.8 -640.46,272.8 -435.85,58.1 -725.81,-124.7 -728.65,-126.6 0,0 121.11,120.6 342.57,157.9 109.99,18.5 241.84,25.5 391,5.6 149.46,-19.9 271.83,-57 368.99,-98 194.85,-82.3 266.55,-211.7 266.55,-211.7" /></g><g
         transform="scale(1.28733)"
         id="g442"><path
           id="path444"
           style="fill:#000000;fill-opacity:1;fill-rule:nonzero;stroke:none"
           d="m 10913.4,16011 c -102.5,78.1 -156,105.6 -260.4,155.4 l 16.6,35.1 c 150.2,-71.5 366.8,-134.5 568.2,-110.2 188.6,22.8 367.8,95.8 427.3,208.7 -49.2,-289 -506.1,-377 -751.7,-289" /></g><g
         transform="scale(1.25613)"
         id="g446"><path
           id="path448"
           style="fill:#000000;fill-opacity:1;fill-rule:nonzero;stroke:none"
           d="m 11465.2,16037.2 -161.4,262.8 c 250.9,-196.7 759.8,-374.2 1121.8,-64.4 -255.8,-370.8 -783.9,-301.9 -960.4,-198.4" /></g><g
         transform="scale(1.21929)"
         id="g450"><path
           id="path452"
           style="fill:#000000;fill-opacity:1;fill-rule:nonzero;stroke:none"
           d="m 12024.2,15965.5 -96.3,334.5 c 234,-244.9 582.3,-524.6 1044,-379.6 -344.2,-224.2 -832.9,-63.6 -947.7,45.1" /></g><g
         transform="scale(1.23862)"
         id="g454"><path
           id="path456"
           style="fill:#ffffff;fill-opacity:1;fill-rule:nonzero;stroke:none"
           d="m 9769.99,15951.2 c 0,-192.5 -149.12,-348.7 -333.03,-348.7 -183.92,0 -333.03,156.2 -333.03,348.7 0,192.7 149.11,348.8 333.03,348.8 183.91,0 333.03,-156.1 333.03,-348.8" /></g><g
         transform="scale(1.40378)"
         id="g458"><path
           id="path460"
           style="fill:#ffffff;fill-opacity:1;fill-rule:nonzero;stroke:none"
           d="m 4014.37,15992.3 c 0,-170 -131.57,-307.7 -293.86,-307.7 -162.29,0 -293.85,137.7 -293.85,307.7 0,169.9 131.56,307.7 293.85,307.7 162.29,0 293.86,-137.8 293.86,-307.7" /></g><g
         transform="scale(1.12884)"
         id="g462"><path
           id="path464"
           style="fill:#ffffff;fill-opacity:1;fill-rule:nonzero;stroke:none"
           d="m 11908.1,16163.2 c 0,-75.5 -58.5,-136.7 -130.6,-136.7 -72.1,0 -130.7,61.2 -130.7,136.7 0,75.6 58.6,136.8 130.7,136.8 72.1,0 130.6,-61.2 130.6,-136.8" /></g><g
         transform="scale(1.25176)"
         id="g466"><path
           id="path468"
           style="fill:#ffffff;fill-opacity:1;fill-rule:nonzero;stroke:none"
           d="m 4949.16,16177.9 c -14.61,-44.7 -62.69,-69.1 -107.41,-54.5 -44.72,14.6 -69.14,62.7 -54.53,107.4 14.6,44.8 62.69,69.2 107.4,54.6 44.73,-14.6 69.14,-62.7 54.54,-107.5" /></g><g
         transform="scale(1.1099)"
         id="g470"><path
           id="path472"
           style="fill:#fefefe;fill-opacity:1;fill-rule:nonzero;stroke:none"
           d="m 4924.22,16300 c -365.71,-216.1 -656.14,-1285.2 268.59,-1729.8 824.4,-396.4 1360.48,283.8 1360.48,283.8 -31.53,-405.4 234.26,-977.5 964.05,-1130.7 730.35,-153.3 1374.03,277.9 1319.97,1178.9 L 4924.22,16300" /></g><g
         transform="scale(1.1099)"
         id="g474"><path
           id="path476"
           style="fill:#d8d7d4;fill-opacity:1;fill-rule:nonzero;stroke:none"
           d="m 4924.22,16300 c -365.71,-216.1 -656.14,-1285.2 268.59,-1729.8 824.4,-396.4 1360.48,283.8 1360.48,283.8 -31.53,-405.4 234.26,-977.5 964.05,-1130.7 730.35,-153.3 1374.03,277.9 1319.97,1178.9 0,0 -244.18,-821 -947.49,-881.6 -1152.87,-99.5 -1302.74,1096.6 -1302.74,1096.6 0,0 -787.61,-592 -1376.27,-225.6 -696.66,433.5 -286.59,1408.4 -286.59,1408.4" /></g><g
         transform="scale(1.1099)"
         id="g478"><path
           id="path480"
           style="fill:#727272;fill-opacity:1;fill-rule:nonzero;stroke:none"
           d="m 7802.22,13670.5 c -94.37,0 -191.35,10.2 -289.51,30.7 -335.24,70.4 -605.36,236.2 -781.16,479.7 -131.81,182.4 -204.25,401.8 -203.32,611 -57.68,-60.1 -172.22,-165.4 -335.83,-248.5 -124.03,-63.1 -290.24,-119.1 -489,-119.2 -155.13,0 -330.04,34.2 -520.36,125.7 -467.61,224.8 -595.07,586.3 -619.64,849.8 -19.68,211.1 21.81,421.7 93.31,594.1 112.64,264.6 267.51,306.2 267.51,306.2 -179.81,-132.3 -351.73,-512.5 -315.97,-896.1 23.5,-252 145.69,-597.6 594.32,-813.4 334.62,-160.9 660.25,-163.6 967.85,-7.8 230.44,116.7 363.86,283.6 365.18,285.3 l 45.87,58 -5.73,-73.7 c -16.9,-217.3 53.21,-452.5 192.33,-645.1 169.13,-234.2 429.82,-393.8 753.89,-461.8 371.63,-78.1 725.81,-1.1 971.75,211.1 249.02,214.9 367.83,541.9 343.6,945.7 0,0 67.54,-140.5 16.67,-401.1 -51.02,-235.4 -163.48,-434.3 -330.84,-578.7 -191.3,-165.1 -444.68,-251.9 -720.92,-251.9" /></g><path
         id="path482"
         style="fill:#565656;fill-opacity:1;fill-rule:nonzero;stroke:none"
         d="m 9098.65,14028.8 c -97.26,897 -520.13,1520.7 -697.43,1747.3 l 39.38,30.8 c 124.29,-158.8 367.53,-510 538.58,-1011.9 151.83,-441.6 119.47,-766.2 119.47,-766.2" /><path
         id="path484"
         style="fill:#565656;fill-opacity:1;fill-rule:nonzero;stroke:none"
         d="m 10381,14100.6 c -511.68,1058.3 -1289.84,1576.5 -1440.63,1669.6 l 26.28,42.6 c 114.64,-70.8 586.99,-384 1034.45,-987.9 277.4,-366.7 379.9,-724.3 379.9,-724.3" /><path
         id="path486"
         style="fill:#565656;fill-opacity:1;fill-rule:nonzero;stroke:none"
         d="m 10974.3,15181.9 c -368.3,444.1 -1278.19,794.9 -1711.93,814.6 l 2.27,50 c 280.11,-12.8 754.96,-161 1161.36,-383.2 414.2,-228.5 548.3,-481.4 548.3,-481.4" /><g
         transform="scale(1.12412)"
         id="g488"><path
           id="path490"
           style="fill:#565656;fill-opacity:1;fill-rule:nonzero;stroke:none"
           d="m 4931.69,15574.7 c -429.32,548.3 -1177.22,663.7 -1584.83,683.8 0,0 241.28,41.5 580.4,-38 363.37,-89.1 764.31,-267 1039.45,-618.3 l -35.02,-27.5" /></g><g
         transform="scale(1.06016)"
         id="g492"><path
           id="path494"
           style="fill:#565656;fill-opacity:1;fill-rule:nonzero;stroke:none"
           d="m 2944.94,16024 c 0,0 189.98,117.9 654.84,189.2 566.03,75.6 1321.98,86.8 1855.52,-145.4 l -18.82,-43.2 c -435.39,189.5 -1001.35,203.5 -1399.48,181.9 -478.39,-25.9 -901.44,-112.7 -1092.06,-182.5" /></g><g
         transform="scale(1.02329)"
         id="g496"><path
           id="path498"
           style="fill:#565656;fill-opacity:1;fill-rule:nonzero;stroke:none"
           d="m 4029.93,15417.8 c 0,0 73.01,201.1 349.69,421.6 112.06,84.4 235.67,159.3 368.69,223.3 322.88,155.2 686,237.3 1050.13,237.3 v -48.9 c -710.37,0 -1404.55,-327.1 -1768.51,-833.3" /></g><g
         transform="scale(1.04045)"
         id="g500"><path
           id="path502"
           style="fill:#727272;fill-opacity:1;fill-rule:nonzero;stroke:none"
           d="m 7014.66,15843.3 -47.83,4.6 c 30.51,319.1 71.44,446.8 73.17,452.1 l 45.67,-15 c -0.4,-1.2 -41.12,-129.1 -71.01,-441.7" /></g><g
         transform="scale(1.11745)"
         id="g504"><path
           id="path506"
           style="fill:#f7809c;fill-opacity:1;fill-rule:nonzero;stroke:none"
           d="m 7836.47,15385.2 c -62.65,-157 -374.96,-200.1 -678.69,-241.8 -237.95,-32.7 -460.96,-90.7 -619.89,-26.9 -177.82,71.3 -276.97,261.5 -393.04,429 -156.78,226.3 -294.69,446.5 -230.43,607.3 18.88,47.2 44.83,74.9 77.58,87.1 161.18,60.1 485.57,-252.9 926.76,-429 457.64,-182.9 891.58,-158.8 930.68,-328.1 6.27,-27 2.42,-59.1 -12.97,-97.6" /></g><g
         transform="scale(1.11745)"
         id="g508"><path
           id="path510"
           style="fill:#ffb3c7;fill-opacity:1;fill-rule:nonzero;stroke:none"
           d="m 7849.44,15482.8 c -264.08,9.9 -845.4,109.3 -1102.5,208.5 -245.03,94.7 -603.61,409.5 -754.94,548.6 161.18,60.1 485.57,-252.9 926.76,-429 457.64,-182.9 891.58,-158.8 930.68,-328.1" /></g><g
         transform="scale(1.10736)"
         id="g512"><path
           id="path514"
           style="fill:#ee5991;fill-opacity:1;fill-rule:nonzero;stroke:none"
           d="m 7907.91,15525.4 c -63.27,-158.4 -378.36,-202 -684.87,-244 -240.18,-33 -465.2,-91.5 -625.54,-27.2 -179.49,72 -279.53,263.9 -396.68,433 -158.19,228.3 -297.33,450.4 -232.51,612.8 98.82,-269.6 232.58,-521.9 754.6,-767 464,-218 950.79,-134.7 1185,-7.6" /></g><g
         transform="scale(1.11721)"
         id="g516"><path
           id="path518"
           style="fill:#b52c64;fill-opacity:1;fill-rule:nonzero;stroke:none"
           d="m 6038.63,16228.6 c -12.58,0 -24.21,-1.7 -34.85,-5.3 -28.93,-9.8 -50.95,-34.4 -67.31,-75.4 -60.19,-150.6 73.54,-363.3 228.06,-586.3 19.71,-28.5 39.19,-58 58.02,-86.4 94.45,-143 183.67,-277.9 325.1,-334.8 121.52,-48.7 289.86,-21.7 468.08,6.9 45.68,7.4 92.9,14.9 140.57,21.4 296.49,40.7 603.09,82.8 661.09,228.1 v 0 c 17.31,43.3 18.78,77.3 4.49,104.2 -37.22,69.7 -183.56,101 -368.85,140.6 -154.48,33.1 -346.74,74.2 -541.07,151.8 -191.14,76.3 -357.01,176 -503.34,263.9 -156.91,94.3 -285.11,171.3 -369.99,171.3 z m 675.03,-1159.8 c -66.42,0 -128.02,8.2 -182.68,30.1 -154.4,62 -251.69,209.3 -345.77,351.6 -18.7,28.3 -38.03,57.5 -57.47,85.6 -161.74,233.5 -301.25,457.2 -232.84,628.5 21.53,53.9 52.47,87 94.59,101.1 101.95,34.3 244.65,-51.4 442.17,-170 144.89,-87 309.11,-185.8 496.89,-260.8 190.81,-76.2 381.01,-116.9 533.85,-149.6 204.33,-43.6 351.96,-75.2 398.96,-163.3 20.88,-39.1 20.09,-85.6 -2.41,-141.9 v 0 c -67.66,-169.4 -387.38,-213.3 -696.57,-255.7 -47.16,-6.4 -94.13,-14 -139.56,-21.3 -108.72,-17.5 -213.9,-34.3 -309.16,-34.3" /></g><g
         transform="scale(1.46632)"
         id="g520"><path
           id="path522"
           style="fill:#000000;fill-opacity:1;fill-rule:nonzero;stroke:none"
           d="m 2170.51,15252.7 c 0,0 622.56,768.7 1449.36,852.1 535.99,24.5 1037.75,-153.1 1360.73,-794.5 177.13,-618.4 178.16,-1477 -478.82,-2400.9 393.2,323.1 740.14,1197.3 740.21,1817.9 0.09,689.4 -427.84,1572.7 -1543.94,1487.6 -1116.1,-85.1 -1527.54,-962.2 -1527.54,-962.2" /></g><g
         transform="scale(1.34466)"
         id="g524"><path
           id="path526"
           style="fill:#000000;fill-opacity:1;fill-rule:nonzero;stroke:none"
           d="m 11003.2,13423.2 c 0,0 38.6,1099.6 -532.5,1803.7 -393.7,432.8 -1020.11,639.2 -1779.34,378.2 -628.48,-355.1 -1283.54,-909.4 -1512.21,-2150.8 -45.96,560.3 414.69,1481.6 908.42,1975.1 548.39,548.4 1629.34,870.6 2373.73,-7.7 789.5,-931.3 541.9,-1998.5 541.9,-1998.5" /></g></g></g></svg>